<svg width="190" height="190" viewBox="0 0 190 190" fill="none" xmlns="http://www.w3.org/2000/svg"><g clip-path="url(#a)"><path d="M178.693 27.715H56.653c-4.84 0-4.846 7.538 0 7.538h122.04a3.773 3.773 0 0 1 3.769 3.769v89.065a3.772 3.772 0 0 1-3.769 3.768h-65.99a3.771 3.771 0 0 0-2.958 1.434l-15.202 19.26-16.124-19.338a3.77 3.77 0 0 0-2.895-1.356H11.307a3.773 3.773 0 0 1-3.77-3.768V39.022a3.773 3.773 0 0 1 3.77-3.77h14.34c4.84 0 4.847-7.537 0-7.537h-14.34C5.072 27.715 0 32.787 0 39.022v89.065c0 6.234 5.072 11.306 11.307 11.306H73.76l17.968 21.551c1.518 1.82 4.385 1.782 5.854-.079l16.948-21.472h64.163c6.235 0 11.307-5.072 11.307-11.306V39.022c0-6.235-5.072-11.307-11.307-11.307z" fill="#7D7D7D"/><path d="M39.142 34.615c2.837 1.944 6.624-.88 5.72-4.135a3.799 3.799 0 0 0-3.445-2.759 3.802 3.802 0 0 0-3.699 2.408c-.621 1.615-.033 3.534 1.424 4.486z" fill="#7D7D7D"/><path fill-rule="evenodd" clip-rule="evenodd" d="M47.5 92.633L36.528 97.88l2.096-11.11-8.876-7.868 12.266-1.621L47.5 67.172l5.486 10.108 12.267 1.62-8.877 7.869 2.096 11.11L47.5 92.633zm47.98 0L84.508 97.88l2.096-11.11-8.877-7.868 12.267-1.621 5.486-10.108 5.486 10.108 12.266 1.62-8.876 7.869 2.095 11.11-10.971-5.246zm47.98 0l-10.972 5.246 2.095-11.11-8.876-7.868 12.267-1.621 5.486-10.108 5.485 10.108 12.267 1.62-8.876 7.869 2.095 11.11-10.971-5.246z" fill="#C4C4C4"/></g><defs><clipPath id="a"><path fill="#fff" d="M0 0h190v190H0z"/></clipPath></defs></svg>