<svg width="52" height="52" viewBox="0 0 52 52" fill="none" xmlns="http://www.w3.org/2000/svg"><g clip-path="url(#a)" fill="#fff"><path d="M36.097 51.989a2.612 2.612 0 0 0 2.512-1.923l2.396-8.946 9.074-2.425a2.604 2.604 0 0 0 1.833-3.183l-4.705-17.534.373-1.387a2.6 2.6 0 0 0-1.568-3.083L43.894 5.6a2.617 2.617 0 0 0-3.184-1.84L25.236 7.91 12.26 4.433a2.548 2.548 0 0 0-1.61.087L7.41 1.283a4.332 4.332 0 1 0-6.127 6.125l5.908 5.909-7.08 26.425a2.605 2.605 0 0 0 1.834 3.187l33.477 8.97c.22.06.447.09.675.09zM50.235 35.96a.867.867 0 0 1-.607 1.059l-8.104 2.166 4.784-17.858 3.927 14.633zM41.153 5.436a.866.866 0 0 1 1.067.615l1.848 6.904-15.485-4.148 12.57-3.371zm-14.902 20.82l-4.374-1.459 2.916-2.919 1.458 4.374v.003zM22.725 21.5l-7.352-7.353a.866.866 0 1 0-1.225 1.226l7.352 7.35-1.224 1.227L8.022 11.697l1.225-1.225 2.45 2.451a.867.867 0 0 0 1.226-1.226l-2.45-2.45 1.225-1.226L23.95 20.275 22.725 21.5zM5.57 9.247l3.676-3.676 1.225 1.225-3.675 3.676L5.57 9.247zM1.746 4.346a2.6 2.6 0 0 1 4.438-1.838l1.838 1.838-3.676 3.676-1.84-1.839a2.582 2.582 0 0 1-.76-1.837zm.04 35.851l6.82-25.464 11.056 11.055c.09.089.2.156.319.197.007 0 .012.01.02.012l5.707 1.906a1.742 1.742 0 0 0 1.473-.184l9.963 2.675a.866.866 0 0 0 .449-1.673l-9.617-2.581a1.793 1.793 0 0 0-.08-.434l-1.906-5.708c0-.008-.01-.013-.013-.02a.86.86 0 0 0-.196-.318L12.391 6.264l32.898 8.812a.867.867 0 0 1 .613 1.063l-8.966 33.473a.866.866 0 0 1-1.063.614L2.4 41.259a.87.87 0 0 1-.613-1.062z"/><path d="M40.063 20.394a.867.867 0 0 0 .223-1.704l-12.323-3.3a.866.866 0 1 0-.449 1.672l12.324 3.303c.073.02.149.03.224.03zm-1.347 5.021a.867.867 0 0 0 .224-1.704l-8.38-2.241a.866.866 0 1 0-.447 1.674l8.379 2.241c.072.02.148.03.223.03zM11.98 27.251l-2.512-.673a.866.866 0 1 0-.45 1.673l2.513.674a.866.866 0 0 0 .45-1.674zm24.883 7.563a.866.866 0 0 0-.613-1.06l-19.249-5.157a.867.867 0 0 0-.448 1.67l19.248 5.156a.866.866 0 0 0 1.061-.61zm-26.228-2.542L8.122 31.6a.867.867 0 0 0-.447 1.674l2.512.672a.866.866 0 0 0 .449-1.673h-.001zm24.27 6.504l-19.248-5.158a.867.867 0 1 0-.45 1.673l19.25 5.158a.867.867 0 0 0 .449-1.673z"/></g><defs><clipPath id="a"><path fill="#fff" d="M0 0h52v52H0z"/></clipPath></defs></svg>