<svg width="55" height="55" viewBox="0 0 55 55" fill="none" xmlns="http://www.w3.org/2000/svg"><g clip-path="url(#a)" fill="#fff"><path d="M23.26 18.86h-6.622c-.593 0-1.074.482-1.074 1.075v9.497c0 .593.48 1.074 1.074 1.074h6.622c.593 0 1.074-.48 1.074-1.074v-9.497c0-.593-.481-1.074-1.074-1.074zm-1.075 9.498h-4.473v-7.349h4.473v7.349zm4.899-8.423c0 .593.481 1.074 1.075 1.074h8.782a1.074 1.074 0 0 0 0-2.148h-8.782c-.594 0-1.075.48-1.075 1.074zm9.856 3.675h-8.78a1.074 1.074 0 0 0 0 2.149h8.782a1.074 1.074 0 0 0 0-2.148z"/><path d="M49.998 6.257h-7.966L35.451.28a1.074 1.074 0 0 0-.723-.28H13.2a2.09 2.09 0 0 0-2.088 2.088v4.17h-6.11a4.525 4.525 0 0 0-4.519 4.52v26.903a4.525 4.525 0 0 0 4.52 4.521h12.843l-.959 4.465h-1.131a4.17 4.17 0 0 0-4.166 4.165v3.094c0 .593.481 1.074 1.074 1.074h28.591c.594 0 1.075-.481 1.075-1.074v-3.094a4.169 4.169 0 0 0-4.163-4.165h-1.134l-.957-4.465h13.922a4.525 4.525 0 0 0 4.519-4.521V10.779a4.525 4.525 0 0 0-4.52-4.522zm0 2.149a2.374 2.374 0 0 1 2.37 2.373v22.347h-8.48V8.407h6.11zM35.803 3.5l4.23 3.843h-4.23V3.501zm-30.8 4.905h6.11v24.72H2.631V10.78a2.374 2.374 0 0 1 2.37-2.373zM40.18 50.832v2.02H13.74v-2.02a2.02 2.02 0 0 1 2.017-2.016h22.41c1.11 0 2.014.904 2.014 2.016zm-5.345-4.165h-15.75l.96-4.465h13.833l.958 4.465zm15.162-6.614H5.003a2.374 2.374 0 0 1-2.371-2.372v-2.406h20.046a1.074 1.074 0 0 0 0-2.149h-9.417V2.148h20.393v5.254c0 1.153.938 2.09 2.09 2.09h5.995v23.634h-9.417a1.074 1.074 0 0 0 0 2.149h20.046v2.406a2.374 2.374 0 0 1-2.37 2.373z"/><path d="M16.8 10.639h12a1.074 1.074 0 0 0 0-2.149h-12a1.074 1.074 0 0 0 0 2.149zm0 4.75h19.06a1.074 1.074 0 0 0 0-2.149H16.8a1.074 1.074 0 0 0 0 2.149zm10.702 17.737a1.074 1.074 0 0 0 0 2.148h.003c.593 0 1.072-.48 1.072-1.074 0-.593-.482-1.074-1.076-1.074z"/></g><defs><clipPath id="a"><path fill="#fff" d="M0 0h55v55H0z"/></clipPath></defs></svg>