<svg width="474" height="272" viewBox="0 0 474 272" fill="none" xmlns="http://www.w3.org/2000/svg"><circle cx="338.228" cy="135.691" r="135.691" fill="#EBF4FF"/><rect x="270.635" y="33.046" width="135.191" height="231.326" rx="10" fill="#72737A"/><path fill="#B9D8F5" d="M281.65 46.065h112.158v194.274H281.65z"/><circle cx="337.729" cy="252.355" r="6.008" fill="#B8B8B8"/><g filter="url(#a)"><path d="M410.19 70.099H265.919a7.302 7.302 0 0 0-7.302 7.302v35.704a7.303 7.303 0 0 0 7.302 7.303H410.19a7.303 7.303 0 0 0 7.302-7.303V77.401a7.302 7.302 0 0 0-7.302-7.302z" fill="#fff"/><path d="M328.801 86.88l.979 3.012a.51.51 0 0 0 .484.352h3.168a.51.51 0 0 1 .3.923l-2.562 1.862a.509.509 0 0 0-.187.57l.98 3.011a.51.51 0 0 1-.785.571l-2.563-1.861a.51.51 0 0 0-.6 0l-2.562 1.861a.51.51 0 0 1-.785-.57l.979-3.013a.511.511 0 0 0-.186-.57l-2.562-1.86a.51.51 0 0 1 .3-.924h3.166a.509.509 0 0 0 .485-.352l.979-3.012a.511.511 0 0 1 .972 0zm14.568 0l.979 3.012a.51.51 0 0 0 .485.353h3.166c.494 0 .7.632.301.923l-2.563 1.861a.51.51 0 0 0-.186.57l.979 3.012a.51.51 0 0 1-.785.57l-2.562-1.86a.51.51 0 0 0-.6 0l-2.562 1.86a.51.51 0 0 1-.785-.57l.979-3.012a.51.51 0 0 0-.186-.57l-2.563-1.861a.51.51 0 0 1 .301-.924h3.166a.51.51 0 0 0 .486-.352l.978-3.012c.155-.47.82-.47.972 0zm14.566 0l.98 3.012a.51.51 0 0 0 .484.353h3.166c.495 0 .7.632.301.923l-2.563 1.861a.51.51 0 0 0-.185.57l.978 3.012a.51.51 0 0 1-.785.57l-2.562-1.86a.51.51 0 0 0-.6 0l-2.562 1.86a.51.51 0 0 1-.785-.57l.979-3.012a.51.51 0 0 0-.185-.57l-2.563-1.861a.51.51 0 0 1 .3-.924h3.167a.51.51 0 0 0 .485-.352l.979-3.012c.154-.47.819-.47.971 0zm14.567 0l.979 3.012a.51.51 0 0 0 .485.353h3.167a.51.51 0 0 1 .299.923l-2.562 1.861a.51.51 0 0 0-.185.57l.979 3.012c.152.47-.387.861-.785.57l-2.563-1.86a.51.51 0 0 0-.6 0l-2.562 1.86a.51.51 0 0 1-.785-.57l.978-3.012a.51.51 0 0 0-.185-.57l-2.562-1.861a.51.51 0 0 1 .3-.924h3.166a.509.509 0 0 0 .485-.352l.979-3.012a.511.511 0 0 1 .972 0z" fill="#4A90E2"/><path d="M387.069 86.88l.978 3.012a.51.51 0 0 0 .486.353h3.166a.51.51 0 0 1 .301.923l-2.563 1.861a.51.51 0 0 0-.186.57l.979 3.012a.51.51 0 0 1-.785.57l-2.562-1.86a.51.51 0 0 0-.6 0l-2.562 1.86a.51.51 0 0 1-.785-.57l.979-3.012a.51.51 0 0 0-.186-.57l-2.563-1.861a.51.51 0 0 1 .301-.924h3.166a.507.507 0 0 0 .484-.352l.98-3.012a.511.511 0 0 1 .972 0zm-13.284 15.346h-51.096v1.419h51.096v-1.419z" fill="#B1D7DD"/><path d="M373.785 79.867h-51.096v2.003h51.096v-2.003z" fill="#3D79BE"/><path d="M373.785 107.628h-51.096v1.419h51.096v-1.419zm-27.74 5.017h-23.356v1.419h23.356v-1.419z" fill="#B1D7DD"/><path d="M291.117 116.41c11.266 0 20.399-9.133 20.399-20.4 0-11.266-9.133-20.4-20.399-20.4-11.267 0-20.4 9.134-20.4 20.4 0 11.267 9.133 20.4 20.4 20.4z" fill="#4A90E2"/><mask id="b" maskUnits="userSpaceOnUse" x="270" y="75" width="42" height="42"><path d="M291.117 116.41c11.266 0 20.399-9.133 20.399-20.4 0-11.266-9.133-20.4-20.399-20.4-11.267 0-20.4 9.134-20.4 20.4 0 11.267 9.133 20.4 20.4 20.4z" fill="#7BC7FF"/></mask><g mask="url(#b)"><path d="M301.233 108.359l-1.79-18.85c0-4.826-1.896-9.266-7.003-7.95-2.308-1.209-5.184-.928-7.072.869-1.998 1.902-3.143 4.796-3.143 7.714l-2 18.323 21.008-.106z" fill="#0A4D7A"/><path d="M294.143 98.676v4.15s-.58 3.244-3.312 3.792c-2.846-.747-3.286-3.792-3.286-3.792v-4.15h6.598z" fill="#E9B49D"/><path d="M294.144 98.084v2.642a6.958 6.958 0 0 1-6.597 0v-2.642h6.597z" fill="#C99B88"/><path d="M297.536 89.731c-3.033-.085-5.019-2.433-5.019-2.433-1.847 1.608-8.324 2.433-8.324 2.433l-.043 2.556c0 1.926.814 4.266 2.114 6.066 1.059 1.466 2.773 2.314 4.581 2.314 1.807 0 3.521-.849 4.579-2.314 1.302-1.8 2.114-4.14 2.114-6.066l-.002-2.556zm9.624 19.997c-2.584-4.445-13.526-6.901-13.526-6.901l-2.877 1.103-2.877-1.103s-10.941 2.456-13.526 6.901l-3.17 23.959 5.031-.078 2.946-20.004s1.86 6.461 1.757 10.234c-.104 3.774-1.277 10.011-1.277 10.011h22.232s-1.175-6.237-1.278-10.011c-.103-3.773 1.758-10.234 1.758-10.234l2.946 20.004 5.031.078-3.17-23.959z" fill="#E9B49D"/><path d="M299.624 104.689c-.873 2.493-3.129 6.305-8.832 6.603-5.722-.298-7.973-4.134-8.84-6.627-1.672.647-3.416 1.461-4.868 2.427l1.966 6.514c.031.05.058.114.086.171l.025-.171a40.85 40.85 0 0 0 .266.982c.51 1.948 1.57 6.377 1.491 9.252-.104 3.773-1.277 10.011-1.277 10.011h22.232s-1.175-6.238-1.278-10.011c-.103-3.773 1.758-10.234 1.758-10.234l.041.276a2.22 2.22 0 0 1 .14-.276l1.955-6.474c-1.446-.973-3.19-1.792-4.865-2.443z" fill="#3671B6"/></g></g><path d="M427.355 43.325c-13.551 0-24.535 8.478-24.535 18.936 0 5.406 2.94 10.279 7.649 13.73l-2.498 7.558 8.977-4.14c3.16 1.144 6.685 1.787 10.407 1.787 13.55 0 24.534-8.478 24.534-18.935 0-10.458-10.985-18.936-24.534-18.936z" fill="#3D70AC"/><path d="M427.354 58.244a3.9 3.9 0 0 1 3.897 3.9 3.9 3.9 0 0 1-3.897 3.902 3.899 3.899 0 0 1-3.897-3.901 3.899 3.899 0 0 1 3.897-3.901zm-12.297 0a3.9 3.9 0 0 0-3.897 3.9 3.9 3.9 0 0 0 3.897 3.902 3.898 3.898 0 0 0 3.896-3.901 3.898 3.898 0 0 0-3.896-3.901zm20.696 3.9a3.9 3.9 0 0 0 3.896 3.902 3.9 3.9 0 0 0 3.897-3.901 3.9 3.9 0 0 0-3.897-3.901 3.9 3.9 0 0 0-3.896 3.9z" fill="#80B3EE"/><rect x="290.662" y="134.189" width="93.131" height="36.051" rx="5" fill="#fff"/><path d="M322.964 146.089l.682 2.1a.355.355 0 0 0 .338.246h2.208c.344 0 .488.441.21.644l-1.787 1.298a.355.355 0 0 0-.13.397l.683 2.1a.356.356 0 0 1-.547.398l-1.787-1.298a.354.354 0 0 0-.418 0l-1.787 1.298a.356.356 0 0 1-.547-.398l.683-2.1a.355.355 0 0 0-.13-.397l-1.787-1.298a.356.356 0 0 1 .21-.644h2.207a.353.353 0 0 0 .338-.246l.683-2.1a.357.357 0 0 1 .678 0zm10.156 0l.683 2.1a.353.353 0 0 0 .337.246h2.208c.344 0 .488.441.209.644l-1.786 1.298a.355.355 0 0 0-.13.397l.683 2.1a.356.356 0 0 1-.548.398l-1.786-1.298a.354.354 0 0 0-.418 0l-1.787 1.298a.356.356 0 0 1-.547-.398l.683-2.1a.355.355 0 0 0-.13-.397l-1.787-1.298a.356.356 0 0 1 .21-.644h2.207a.356.356 0 0 0 .339-.246l.682-2.1c.108-.327.572-.327.678 0zm10.156 0l.683 2.1a.354.354 0 0 0 .338.246h2.207c.345 0 .488.441.21.644l-1.787 1.298a.354.354 0 0 0-.129.397l.682 2.1a.356.356 0 0 1-.547.398l-1.787-1.298a.354.354 0 0 0-.418 0l-1.787 1.298a.356.356 0 0 1-.547-.398l.683-2.1a.355.355 0 0 0-.13-.397l-1.786-1.298a.356.356 0 0 1 .209-.644h2.208c.154 0 .29-.099.338-.246l.683-2.1c.107-.327.571-.327.677 0z" fill="#4A90E2"/><path d="M353.432 146.089l.683 2.1a.354.354 0 0 0 .338.246h2.208c.344 0 .487.441.209.644l-1.787 1.298a.357.357 0 0 0-.129.397l.683 2.1c.106.328-.27.6-.548.398l-1.786-1.298a.356.356 0 0 0-.419 0l-1.786 1.298a.356.356 0 0 1-.547-.398l.682-2.1a.355.355 0 0 0-.129-.397l-1.787-1.298a.356.356 0 0 1 .21-.644h2.207a.354.354 0 0 0 .338-.246l.683-2.1a.356.356 0 0 1 .677 0zm10.157 0l.682 2.1a.356.356 0 0 0 .339.246h2.207c.344 0 .488.441.21.644l-1.787 1.298a.355.355 0 0 0-.13.397l.683 2.1a.356.356 0 0 1-.547.398l-1.787-1.298a.354.354 0 0 0-.418 0l-1.787 1.298a.356.356 0 0 1-.547-.398l.683-2.1a.355.355 0 0 0-.13-.397l-1.787-1.298a.356.356 0 0 1 .21-.644h2.207a.353.353 0 0 0 .338-.246l.683-2.1a.357.357 0 0 1 .678 0zm-9.26 10.7h-35.626v.989h35.626v-.989z" fill="#B1D7DD"/><path d="M354.329 141.199h-35.626v1.397h35.626v-1.397z" fill="#3D79BE"/><path d="M354.329 160.555h-35.626v.99h35.626v-.99zm-19.341 3.498h-16.285v.989h16.285v-.989z" fill="#B1D7DD"/><circle cx="305.182" cy="152.715" r="8.512" fill="#A0B5CD"/><rect x="290.662" y="180.254" width="93.131" height="36.051" rx="5" fill="#fff"/><path d="M322.964 192.154l.682 2.1a.357.357 0 0 0 .338.246h2.208c.344 0 .488.441.21.643l-1.787 1.298a.356.356 0 0 0-.13.397l.683 2.1c.106.329-.269.601-.547.398l-1.787-1.297a.354.354 0 0 0-.418 0l-1.787 1.297a.355.355 0 0 1-.547-.398l.683-2.1a.356.356 0 0 0-.13-.397l-1.787-1.298a.356.356 0 0 1 .21-.643h2.207c.155 0 .292-.1.338-.246l.683-2.1a.357.357 0 0 1 .678 0zm10.156 0l.683 2.1a.355.355 0 0 0 .337.246h2.208c.344 0 .488.441.209.643l-1.786 1.298a.356.356 0 0 0-.13.397l.683 2.1a.356.356 0 0 1-.548.398l-1.786-1.297a.354.354 0 0 0-.418 0l-1.787 1.297a.355.355 0 0 1-.547-.398l.683-2.1a.356.356 0 0 0-.13-.397l-1.787-1.298a.356.356 0 0 1 .21-.643h2.207c.155 0 .291-.1.339-.246l.682-2.1c.108-.328.572-.328.678 0z" fill="#4A90E2"/><path d="M343.276 192.154l.683 2.1a.356.356 0 0 0 .338.246h2.207c.345 0 .488.441.21.643l-1.787 1.298a.354.354 0 0 0-.129.397l.682 2.1c.106.329-.269.601-.547.398l-1.787-1.297a.354.354 0 0 0-.418 0l-1.787 1.297a.355.355 0 0 1-.547-.398l.683-2.1a.356.356 0 0 0-.13-.397l-1.786-1.298a.355.355 0 0 1 .209-.643h2.208c.154 0 .29-.1.338-.246l.683-2.1a.356.356 0 0 1 .677 0zm10.156 0l.683 2.1a.356.356 0 0 0 .338.246h2.208c.344 0 .487.441.209.643l-1.787 1.298a.357.357 0 0 0-.129.397l.683 2.1a.356.356 0 0 1-.548.398l-1.786-1.297a.356.356 0 0 0-.419 0l-1.786 1.297a.355.355 0 0 1-.547-.398l.682-2.1a.356.356 0 0 0-.129-.397l-1.787-1.298a.356.356 0 0 1 .21-.643h2.207c.154 0 .291-.1.338-.246l.683-2.1a.356.356 0 0 1 .677 0zm10.157 0l.682 2.1a.357.357 0 0 0 .339.246h2.207c.344 0 .488.441.21.643l-1.787 1.298a.356.356 0 0 0-.13.397l.683 2.1c.106.329-.269.601-.547.398l-1.787-1.297a.354.354 0 0 0-.418 0l-1.787 1.297a.355.355 0 0 1-.547-.398l.683-2.1a.356.356 0 0 0-.13-.397l-1.787-1.298a.356.356 0 0 1 .21-.643h2.207c.155 0 .292-.1.338-.246l.683-2.1a.357.357 0 0 1 .678 0zm-9.26 10.699h-35.626v.989h35.626v-.989z" fill="#B1D7DD"/><path d="M354.329 187.264h-35.626v1.396h35.626v-1.396z" fill="#3D79BE"/><path d="M354.329 206.62h-35.626v.989h35.626v-.989zm-19.341 3.497h-16.285v.99h16.285v-.99z" fill="#B1D7DD"/><circle cx="305.182" cy="198.779" r="8.512" fill="#A0B5CD"/><rect y="70" width="212" height="155" rx="10" fill="#4A90E2"/><rect x="10" y="81" width="192" height="135" rx="10" fill="#71A8E8"/><path d="M186 95.5h73.082" stroke="#2F6EB9" stroke-dasharray="1 3"/><path d="M36.373 135.54l1.5 4.617a.781.781 0 0 0 .742.541h4.856c.757 0 1.071.97.46 1.415l-3.928 2.854a.78.78 0 0 0-.285.873l1.5 4.618c.234.721-.59 1.32-1.203.875l-3.928-2.854a.78.78 0 0 0-.92 0l-3.928 2.854c-.612.445-1.438-.154-1.203-.875l1.501-4.618a.782.782 0 0 0-.285-.873l-3.928-2.854c-.613-.445-.298-1.415.46-1.415h4.854c.34 0 .64-.218.743-.541l1.501-4.617c.237-.72 1.256-.72 1.49 0zm22.331.001l1.501 4.617a.78.78 0 0 0 .743.541h4.854c.757 0 1.073.97.46 1.415l-3.928 2.854a.78.78 0 0 0-.285.873l1.5 4.618c.234.721-.59 1.32-1.203.875l-3.928-2.854a.78.78 0 0 0-.92 0l-3.927 2.854c-.613.445-1.439-.154-1.204-.875l1.501-4.618a.78.78 0 0 0-.285-.873l-3.928-2.854c-.611-.445-.297-1.415.46-1.415h4.854a.78.78 0 0 0 .745-.541l1.5-4.617c.237-.72 1.256-.72 1.49 0zm22.329 0l1.502 4.617a.781.781 0 0 0 .743.541h4.853c.759 0 1.074.97.461 1.415l-3.928 2.854a.78.78 0 0 0-.284.873l1.5 4.618c.233.721-.591 1.32-1.204.875l-3.928-2.854a.78.78 0 0 0-.92 0l-3.928 2.854c-.612.445-1.438-.154-1.203-.875l1.501-4.618a.78.78 0 0 0-.284-.873l-3.928-2.854c-.613-.445-.298-1.415.459-1.415H77.3a.78.78 0 0 0 .743-.541l1.501-4.617c.237-.72 1.256-.72 1.49 0zm22.33 0l1.502 4.617a.78.78 0 0 0 .743.541h4.855c.757 0 1.071.97.459 1.415l-3.928 2.854a.781.781 0 0 0-.284.873l1.501 4.618c.233.721-.592 1.32-1.203.875l-3.929-2.854a.782.782 0 0 0-.921 0l-3.926 2.854c-.613.445-1.439-.154-1.204-.875l1.5-4.618a.78.78 0 0 0-.284-.873l-3.928-2.854c-.613-.445-.298-1.415.46-1.415h4.854a.78.78 0 0 0 .743-.541l1.501-4.617c.235-.72 1.255-.72 1.489 0z" fill="#fff"/><path d="M125.697 135.541l1.5 4.617a.781.781 0 0 0 .744.541h4.854c.757 0 1.072.97.461 1.415l-3.929 2.854a.78.78 0 0 0-.285.873l1.501 4.618c.233.721-.591 1.32-1.203.875l-3.929-2.854a.779.779 0 0 0-.919 0l-3.928 2.854c-.613.445-1.439-.154-1.204-.875l1.502-4.618a.78.78 0 0 0-.286-.873l-3.928-2.854c-.613-.445-.298-1.415.46-1.415h4.854c.339 0 .64-.218.743-.541l1.501-4.617c.235-.72 1.255-.72 1.491 0z" fill="#97BFEE"/><path d="M219.538 156C204.329 156 192 165.076 192 176.271c0 5.788 3.3 11.004 8.585 14.698l-2.804 8.092 10.077-4.432c3.546 1.225 7.503 1.913 11.68 1.913 15.21 0 27.54-9.075 27.54-20.271 0-11.195-12.331-20.271-27.54-20.271z" fill="#fff" filter="url(#c)"/><path d="M229.981 175.599c.55-.63.825-1.375.825-2.235 0-.78-.285-1.455-.854-2.025-.57-.571-1.245-.856-2.025-.856h-4.155c.04-.139.08-.259.12-.359.04-.1.095-.211.165-.331a12.365 12.365 0 0 0 .563-1.109c.095-.221.189-.52.284-.9.096-.38.143-.76.143-1.14 0-.24-.003-.436-.008-.585a6.217 6.217 0 0 0-.075-.676 3.763 3.763 0 0 0-.18-.749 3.476 3.476 0 0 0-.36-.675 2.096 2.096 0 0 0-.6-.608 3.286 3.286 0 0 0-.9-.39 4.482 4.482 0 0 0-1.238-.157.923.923 0 0 0-.675.285c-.2.2-.37.45-.51.75s-.237.56-.293.78c-.055.22-.117.525-.187.915-.09.42-.157.722-.203.907a4.785 4.785 0 0 1-.262.728c-.13.3-.285.54-.465.72-.33.33-.835.93-1.515 1.8-.49.639-.995 1.244-1.515 1.814-.52.571-.9.866-1.14.886a.983.983 0 0 0-.645.307.906.906 0 0 0-.27.653v9.615c0 .26.095.482.285.667.19.185.415.283.675.293.35.01 1.14.229 2.37.66.77.259 1.372.457 1.807.592.435.135 1.043.28 1.822.435.78.155 1.5.233 2.16.233h1.935c1.33-.02 2.315-.41 2.955-1.17.58-.69.825-1.595.735-2.715.39-.37.66-.84.81-1.41.17-.61.17-1.195 0-1.755.46-.61.675-1.295.645-2.055.001-.32-.074-.7-.224-1.14zm-17.894-3.195h-4.32a.923.923 0 0 0-.675.285.923.923 0 0 0-.285.675v9.6c0 .26.095.485.285.675.19.19.415.285.675.285h4.32c.26 0 .485-.095.675-.285a.923.923 0 0 0 .285-.675v-9.6a.923.923 0 0 0-.285-.675.923.923 0 0 0-.675-.285z" fill="#4A90E2"/><path d="M79.426 114.761v3.109h2.2v-3.109h1.916v-1.922h-1.916v-5.441h-2.2v5.441h-5.03l5.967-10.623h-2.33L72 112.904v1.857h7.426zm9.365 3.109v-2.547h-2.635v2.547h2.635zm7.525.13c3.463 0 5.684-2.656 5.684-8.011 0-5.247-2.178-7.989-5.684-7.989-3.419 0-5.684 2.634-5.684 7.989 0 5.269 2.178 8.011 5.684 8.011zm-.022-1.943c-2.243 0-3.353-2.03-3.353-6.111 0-3.995 1.132-6.003 3.375-6.003 2.243 0 3.376 2.03 3.376 6.089 0 4.017-1.133 6.025-3.398 6.025z" fill="#fff"/><circle cx="43.5" cy="110.5" r="16.5" fill="#346EB3"/><path d="M45.203 121a3.52 3.52 0 0 0 3.516-3.516v-.059a2.934 2.934 0 0 0 2.343-2.87 2.933 2.933 0 0 0-2.93-2.93 2.933 2.933 0 0 0-2.929 2.93 2.934 2.934 0 0 0 2.344 2.87v.059a2.346 2.346 0 0 1-2.344 2.344 2.346 2.346 0 0 1-2.344-2.344v-5.892a5.28 5.28 0 0 0 4.688-5.24v-3.594A1.76 1.76 0 0 0 45.789 101h-1.758v1.172h1.758c.323 0 .586.263.586.586v3.594a4.106 4.106 0 0 1-4.102 4.101 4.106 4.106 0 0 1-4.101-4.101v-3.594c0-.323.263-.586.586-.586h1.758V101h-1.758A1.76 1.76 0 0 0 37 102.758v3.594a5.28 5.28 0 0 0 4.688 5.24v5.892A3.52 3.52 0 0 0 45.203 121zm1.172-6.445a1.76 1.76 0 0 1 3.516 0 1.76 1.76 0 0 1-1.758 1.757 1.76 1.76 0 0 1-1.758-1.757z" fill="#fff"/><path d="M57.517 169.732H27.001v-3.821h30.516v3.821zM93.641 164h-3.917v3.821h3.917V164zM27 196.179V200h16.611v-3.821H27zm20.529 0V200h30.086v-3.821H47.53zm19.361-10.09v3.821h38.612v-3.821H66.89zm-39.89 0v3.821h35.972v-3.821H27zm82.42 0v3.821H158v-3.821h-48.58zM27 176v3.821h62.724V176H27zm104.564 0v3.821H158V176h-26.436zm-37.923 0v3.821h34.005V176H93.641z" fill="#B2D1EF"/><defs><filter id="a" x="250.617" y="66.099" width="174.875" height="66.309" filterUnits="userSpaceOnUse" color-interpolation-filters="sRGB"><feFlood flood-opacity="0" result="BackgroundImageFix"/><feColorMatrix in="SourceAlpha" values="0 0 0 0 0 0 0 0 0 0 0 0 0 0 0 0 0 0 127 0"/><feOffset dy="4"/><feGaussianBlur stdDeviation="4"/><feColorMatrix values="0 0 0 0 0.0638021 0 0 0 0 0.101536 0 0 0 0 0.145833 0 0 0 0.25 0"/><feBlend in2="BackgroundImageFix" result="effect1_dropShadow"/><feBlend in="SourceGraphic" in2="effect1_dropShadow" result="shape"/></filter><filter id="c" x="184" y="152" width="71.078" height="59.061" filterUnits="userSpaceOnUse" color-interpolation-filters="sRGB"><feFlood flood-opacity="0" result="BackgroundImageFix"/><feColorMatrix in="SourceAlpha" values="0 0 0 0 0 0 0 0 0 0 0 0 0 0 0 0 0 0 127 0"/><feOffset dy="4"/><feGaussianBlur stdDeviation="4"/><feColorMatrix values="0 0 0 0 0.0598958 0 0 0 0 0.128255 0 0 0 0 0.208333 0 0 0 0.25 0"/><feBlend in2="BackgroundImageFix" result="effect1_dropShadow"/><feBlend in="SourceGraphic" in2="effect1_dropShadow" result="shape"/></filter></defs></svg>