<svg width="548" height="257" viewBox="0 0 548 257" fill="none" xmlns="http://www.w3.org/2000/svg"><rect x="205.322" y="9.089" width="135.191" height="231.326" rx="10" fill="#72737A"/><path fill="#B9D8F5" d="M216.338 22.107h112.158v194.274H216.338z"/><circle cx="272.416" cy="228.398" r="6.008" fill="#B8B8B8"/><path fill="#fff" d="M225.35 60.161h95.134v102.144H225.35z"/><path opacity=".2" d="M311.652 124.331h-78.22a2.075 2.075 0 0 1-2.073-2.076V74.003c0-1.147.928-2.076 2.073-2.076h78.22c1.145 0 2.074.93 2.074 2.076v48.252a2.076 2.076 0 0 1-2.074 2.076z" fill="#9ED3FF"/><path d="M312.402 123.58h-78.22a2.074 2.074 0 0 1-2.073-2.076V73.252c0-1.146.928-2.076 2.073-2.076h78.22c1.145 0 2.074.93 2.074 2.076v48.252a2.075 2.075 0 0 1-2.074 2.076z" fill="#4A90E2"/><path d="M311.366 74.29h-76.147v46.176h76.147V74.289z" fill="#71A8E8"/><path d="M311.366 102.047l-15.807-15.825-24.42 24.448-16.581-16.599-19.339 19.362v7.033h76.147v-18.419z" fill="#6194CF"/><path d="M271.139 96.941a6.615 6.615 0 0 0 6.611-6.618 6.615 6.615 0 0 0-6.611-6.618 6.615 6.615 0 0 0-6.611 6.618 6.615 6.615 0 0 0 6.611 6.618z" fill="#FFFDFF"/><path opacity=".2" d="M311.652 124.331h-78.22a2.075 2.075 0 0 1-2.073-2.076V74.003c0-1.147.928-2.076 2.073-2.076h78.22c1.145 0 2.074.93 2.074 2.076v48.252a2.076 2.076 0 0 1-2.074 2.076z" fill="#9ED3FF"/><path d="M312.402 123.58h-78.22a2.074 2.074 0 0 1-2.073-2.076V73.252c0-1.146.928-2.076 2.073-2.076h78.22c1.145 0 2.074.93 2.074 2.076v48.252a2.075 2.075 0 0 1-2.074 2.076z" fill="#4A90E2"/><path d="M311.366 74.29h-76.147v46.176h76.147V74.289z" fill="#71A8E8"/><path d="M311.366 102.047l-15.807-15.825-24.42 24.448-16.581-16.599-19.339 19.362v7.033h76.147v-18.419z" fill="#6194CF"/><path d="M271.139 96.941a6.615 6.615 0 0 0 6.611-6.618 6.615 6.615 0 0 0-6.611-6.618 6.615 6.615 0 0 0-6.611 6.618 6.615 6.615 0 0 0 6.611 6.618z" fill="#FFFDFF"/><path d="M251.489 132.926h-19.128v-2.445h19.128v2.445zm22.644-3.668h-2.455v2.445h2.455v-2.445zm-41.773 20.588v2.445h10.412v-2.445H232.36zm12.868 0v2.445h18.86v-2.445h-18.86zm12.137-6.455v2.444h24.203v-2.444h-24.203zm-25.005 0v2.444h22.549v-2.444H232.36zm51.664 0v2.444h30.452v-2.444h-30.452zm-51.664-6.455v2.444h39.318v-2.444H232.36zm65.545 0v2.444h16.571v-2.444h-16.571zm-23.772 0v2.444h21.316v-2.444h-21.316z" fill="#B2D1EF"/><path fill="#fff" d="M225.35 170.316h95.134v46.065H225.35z"/><path d="M251.489 191.007h-19.128v-2.445h19.128v2.445zm22.644-3.667h-2.455v2.444h2.455v-2.444zm-41.773 20.588v2.444h10.412v-2.444H232.36zm12.868 0v2.444h18.86v-2.444h-18.86zm12.137-6.456v2.445h24.203v-2.445h-24.203zm-25.005 0v2.445h22.549v-2.445H232.36zm51.664 0v2.445h30.452v-2.445h-30.452zm-51.664-6.455v2.445h39.318v-2.445H232.36zm65.545 0v2.445h16.571v-2.445h-16.571zm-23.772 0v2.445h21.316v-2.445h-21.316z" fill="#B2D1EF"/><path fill="#fff" d="M379.568 80.058h158.223v162.229H379.568z" filter="url(#a)"/><path d="M522.595 178.963H394.299a3.41 3.41 0 0 1-3.401-3.42v-79.51a3.41 3.41 0 0 1 3.401-3.42h128.296a3.41 3.41 0 0 1 3.401 3.42v79.51a3.41 3.41 0 0 1-3.401 3.42z" fill="#4A90E2"/><path d="M520.424 98.183H396.469v75.209h123.955V98.183z" fill="#71A8E8"/><circle cx="450.5" cy="139.5" r="26.5" fill="#84B3EA"/><path fill-rule="evenodd" clip-rule="evenodd" d="M473.118 99.474l-7.417 4.371s-4.386 5.646-8.871 23.91c-4.485 18.277-4.87 45.666-4.87 45.666h45.435s.906-28.752 3.478-39.153 5.889-24.393 4.224-28.083c-1.652-3.69-11.69-10.277-11.69-10.277l-20.289 3.566z" fill="#FEFEFE"/><path d="M469.018 111.621s1.528 1.572.745 4.903c-.409 1.746-1.254 4.755-2.087 7.368-.671 2.117-1.341 3.987-1.789 4.792-1.118 2.018-3.503 1.015-3.503 1.015l.273-.694c.013 0 1.79.743 2.585-.693.409-.731 1.056-2.563 1.726-4.643.821-2.613 1.653-5.585 2.063-7.318.696-2.935-.559-4.223-.572-4.223l.559-.507z" fill="#48586B"/><path fill-rule="evenodd" clip-rule="evenodd" d="M453.252 150.935c5.231.842 14.983-2.811 17.915-3.405 11.17 2.909 19.183 4.791 28.34-4.991 0 0 .385-2.835.373-2.873l-7.716-32.937s-6.883 21.05-7.765 22.846c-.882 1.783-1.254 1.721-1.254 1.721s-1.516-2.031-3.355-2.316c-3.292-.532-5.466 2.415-8.448 2.303l-13.977-.508 4.609-17.991-5.715 18.041-3.007 20.11z" fill="#DBDBDC"/><path fill-rule="evenodd" clip-rule="evenodd" d="M465.701 103.845s-5.504 2.773-9.02 7.342c-3.504 4.569-16.673 23.229-17.257 27.402-.584 4.185 1.068 7.59 3.702 8.853 4.473 2.13 20.848 2.662 26.862-.569 0 0-.908-2.192-.671-3.938l-13.803-8.953c1.043-5.113 7.777-26.645 10.187-30.137z" fill="#FEFEFE"/><path d="M465.875 112.623s-1.802.013-3.417 2.564c-.882 1.374-2.273 3.962-3.503 6.426-1.193 2.378-2.237 4.631-2.51 5.547-.422 1.4 1.814 1.35 1.814 1.35l.012.743c-.012 0-3.254.086-2.547-2.303.286-.954 1.342-3.257 2.56-5.672 1.242-2.488 2.658-5.101 3.54-6.488 1.839-2.897 4.026-2.91 4.038-2.91l.013.743z" fill="#48586B"/><path fill-rule="evenodd" clip-rule="evenodd" d="M466.359 130.331l-1.441-12.222.075-8.346 2.745.075-2.224-6.39 7.604-3.974.174 9.807-6.933 21.05z" fill="#EDEEEE"/><path fill-rule="evenodd" clip-rule="evenodd" d="M489.841 96.836c-1.553.99-9.032 7.702-9.032 7.702l-8.685 19.143-5.764 6.65.149-7.108 4.56-17.211 3.118-6.773 15.742-3.604-.088 1.201z" fill="#434F6F"/><path fill-rule="evenodd" clip-rule="evenodd" d="M455.538 132.014c-.733-.347-3.963-1.015-5.715.483-1.751 1.486-1.665 3.913-1.665 3.913l3.939.148 3.441-4.544z" fill="#FFAC8F"/><path fill-rule="evenodd" clip-rule="evenodd" d="M473.417 107.163l-7.082 16.469.024 6.699 5.765-6.65 5.281-16.221-3.988-.297z" fill="#253141"/><path fill-rule="evenodd" clip-rule="evenodd" d="M475.877 89.444l-1.156 8.284s.323 3.739 2.907 4.036c2.584.297 11.716-7.17 11.915-8.618l1.491-11.218-15.157 7.516z" fill="#D79179"/><path fill-rule="evenodd" clip-rule="evenodd" d="M473.59 102.396c-.124.248-.447 4.718-.174 4.767.261.049 3.815.421 3.989.297.174-.124 4.323-4.965 3.615-5.374-1.006-.581-5.852-1.782-7.43.31z" fill="#253141"/><path fill-rule="evenodd" clip-rule="evenodd" d="M476.485 101.22c-3.416.446-5.814 5.399-6.336 5.176-.161-.075 1.019-3.851 1.479-6.142.46-2.278 3.503-5.163 3.404-4.767-.87 3.566 1.441 5.671 1.453 5.733z" fill="#434F6F"/><path fill-rule="evenodd" clip-rule="evenodd" d="M493.904 96.242c-2.473 19.032-8.436 36.057-11.132 36.28-2.696.211-25.743-1.845-28.178-.879-4.336 1.734-6.026 6.377-3.454 10.228 0 0 26.563 5.906 32.017 7.071 5.467 1.163 13.878-4.372 17.717-10.786 3.839-6.413 6.137-24.677 6.175-28.566.099-9.584-13.046-14.153-13.145-13.348z" fill="#FEFEFE"/><path d="M493.282 96.75c1.554.767.634 3.553-1.18 7.181-.77 1.523-1.714 3.257-2.696 5.052-2.696 4.928-5.64 10.327-6.1 13.906l-.745-.087c.472-3.715 3.466-9.188 6.187-14.166.969-1.77 1.888-3.467 2.684-5.039 1.615-3.244 2.535-5.683 1.515-6.179l.335-.669z" fill="#48586B"/><path fill-rule="evenodd" clip-rule="evenodd" d="M491.493 94.025l6.163 2.65-13.629 11.764 3.528 1.052-21.196 20.84 5.765-6.65 8.685-19.143 10.684-10.513z" fill="#EDEEEE"/><path fill-rule="evenodd" clip-rule="evenodd" d="M489.965 89.94c-1.565 4.618-14.288 11.082-13.331 11.28.957.197 4.647 3.702 5.293 4.593.646.88 13.915-10.265 12.958-11.305-2.199-2.377-3.28-3.095-4.92-4.569z" fill="#434F6F"/><path fill-rule="evenodd" clip-rule="evenodd" d="M480.97 130.231c1.466.619 2.435 2.439 2.435 2.439s.51 1.771-.409 1.92c-.933.148-2.212-2.217-2.212-2.217s.186 1.449.236 2.056c.049.594-1.417.731-1.764.161-.348-.582-1.044-2.365-1.044-2.365s.274 2.192-.075 2.489c-.335.285-1.192.148-1.466-.248-.26-.384-.707-2.191-.707-2.191s.037 2.117-.386 2.241c-.41.123-1.242.074-1.267-1.164-.012-1.25-.547-1.238-.547-1.238l-1.316-.074s1.142-1.536 2.285-1.882c1.156-.335 5.393-.261 6.237.073z" fill="#FFAC8F"/><path opacity=".38" fill-rule="evenodd" clip-rule="evenodd" d="M450.121 136.484c-.434 1.722-.149 3.641 1.019 5.387 0 0 1.168.26 3.044.668.1.025.211.049.311.074 3.591.793 9.554 2.117 15.182 3.368 5.827 1.288 11.319 2.502 13.48 2.96 5.031 1.077 12.561-3.529 16.723-9.275.36-.495.695-1.003.993-1.51 3.839-6.414 6.138-24.678 6.175-28.567a10.197 10.197 0 0 0-.583-3.528 311.911 311.911 0 0 1-1.082 6.117c-1.118 5.881-2.596 12.506-4.212 16.394-.72 1.746-1.652 3.467-2.696 5.113-3.801 6.018-9.143 10.921-11.802 11.577-1.814.459-9.815-.396-17.394-1.659-6.51-1.089-12.71-2.476-14.387-3.628a6.72 6.72 0 0 1-.323-.223c-1.479-1.089-2.348-2.253-2.858-3.219-.621-1.189-.695-2.068-.695-2.068a6.84 6.84 0 0 0-.895 2.019z" fill="#EDEEEE"/><path fill-rule="evenodd" clip-rule="evenodd" d="M482.623 126.566a2.81 2.81 0 0 0 2.807-2.81 2.799 2.799 0 0 0-2.807-2.798c-1.554 0-2.821 1.25-2.821 2.798a2.821 2.821 0 0 0 2.821 2.81z" fill="#71859C"/><path fill-rule="evenodd" clip-rule="evenodd" d="M482.623 124.87a1.12 1.12 0 0 0 1.118-1.115c0-.607-.509-1.114-1.118-1.114a1.12 1.12 0 0 0-1.119 1.114c0 .619.497 1.115 1.119 1.115zm-24.476 5.027a.982.982 0 0 0 .982-.978.982.982 0 0 0-.982-.978.99.99 0 0 0-.981.978.99.99 0 0 0 .981.978zm4.61.309a.972.972 0 1 0 0-1.944.98.98 0 0 0-.982.966c0 .545.447.978.982.978z" fill="#48586B"/><path fill-rule="evenodd" clip-rule="evenodd" d="M471.379 67.243c-.572.594-1.503 2.39-1.678 4.259-.161 1.858.609 3.38.609 3.38l3.429-7.677-2.36.038z" fill="#193755"/><path fill-rule="evenodd" clip-rule="evenodd" d="M489.99 85.952c-1.429 6.117-6.696 7.69-9.976 8.656-3.28.965-6.274-.322-8.113-4.656-1.851-4.334-1.491-8-1.963-9.844-.46-1.845-.919-5.387.956-9.795 2.945-6.91 11.356-7.293 16.475-2.204 3.727 3.69 4.199 11.157 2.621 17.843z" fill="#FFAC8F"/><path fill-rule="evenodd" clip-rule="evenodd" d="M489.878 81.63c-.26-.395-3.466-2.451-3.59-4.779-.137-2.328 1.59-5.324.658-7.714-1.031-2.662-8.945 2.167-15.542.124-1.342-.421-2.336-1.449-1.528-3.183.795-1.72 6.572-2.96 9.641-3.492 3.068-.532 7.603.805 10.001 3.331 2.398 2.526 4.038 6.81 3.964 9.337-.063 2.526-2.846 7.937-2.846 7.937l-.758-1.56z" fill="#193755"/><path fill-rule="evenodd" clip-rule="evenodd" d="M491.891 77.16c2.982.285-.472 8.235-2.758 6.526-.919-.693-.274-3.578-.062-4.383.31-1.226.981-2.316 2.82-2.142z" fill="#FFAC8F"/><path d="M475.429 80.566c0-.062.063-.112.124-.1.05.013.1.063.087.124-.087.768-.174 1.437-.385 2.056a4.577 4.577 0 0 1-1.118 1.795c-.1.1-.162.198-.187.285-.062.161-.012.322.112.47.137.161.361.298.609.421.559.285 1.279.446 1.615.496a.12.12 0 0 1 .1.123.122.122 0 0 1-.125.1 6.49 6.49 0 0 1-1.689-.52c-.274-.137-.522-.298-.683-.483-.162-.198-.236-.433-.15-.68.05-.125.124-.236.236-.36a4.52 4.52 0 0 0 1.081-1.721c.2-.594.286-1.25.373-2.006zm-.609 7.726c-.037-.05-.037-.123.013-.16a.117.117 0 0 1 .161.024c.037.05.1.112.174.161.41.31 1.217.52 2.1.52.87-.012 1.826-.235 2.547-.805.199-.16.372-.334.521-.545a.119.119 0 0 1 .162-.024.13.13 0 0 1 .012.16 3.093 3.093 0 0 1-.559.582c-.758.594-1.764.842-2.684.842-.931.012-1.776-.223-2.236-.557a.804.804 0 0 1-.211-.198zm5.964-11.469c-.568.06-1.306.202-1.787.155-.327-.033-.432-.211-.302-.498.09-.196.298-.252.489-.316.629-.21 3.65-.198 3.499.782 0 0-1.185-.2-1.899-.123zm-8.551.476c.572-.009 1.322.041 1.793-.064.321-.072.404-.262.238-.53-.113-.184-.326-.214-.524-.254-.65-.132-3.647.248-3.376 1.203 0 0 1.151-.345 1.869-.355z" fill="#193755"/><path fill-rule="evenodd" clip-rule="evenodd" d="M480.548 80.194c.36 0 .646-.446.646-1.003 0-.545-.286-1.003-.646-1.003-.36 0-.646.458-.646 1.003 0 .558.286 1.003.646 1.003zm-7.442.818c.36 0 .646-.446.646-.99 0-.558-.286-1.003-.646-1.003-.361 0-.658.445-.658 1.003 0 .544.297.99.658.99z" fill="#193755"/><path fill-rule="evenodd" clip-rule="evenodd" d="M475.665 150.724l14.81 1.994-.137 1.993-14.822-1.981.149-2.006z" fill="#EDEEEE"/><path opacity=".46" fill-rule="evenodd" clip-rule="evenodd" d="M494.836 146.613c-1.963 5.126-8.66 21.607-14.114 22.907-4.908 1.164-20.897 1.536-28.712 1.758-.037 1.375-.05 2.142-.05 2.142h45.435s.571-18.202 2.112-30.881c-1.59 1.684-3.131 3.021-4.671 4.074z" fill="#EDEEEE"/><path fill-rule="evenodd" clip-rule="evenodd" d="M461.235 88.978l-7.131-4.343V72.014a3.348 3.348 0 0 0-3.342-3.344h-41.907a3.35 3.35 0 0 0-3.354 3.344V96.37a3.358 3.358 0 0 0 3.354 3.343h41.907a3.356 3.356 0 0 0 3.342-3.343v-7.494l7.131.102z" fill="#A7CBF7"/><g clip-path="url(#b)"><path d="M418.998 94.088l4.471-4.47.91.91-4.471 4.47-.91-.91z" fill="#fff"/><path d="M419.453 94.543l4.471-4.47.455.455-4.471 4.47-.455-.455z" fill="#E9E9EB"/><path d="M432.411 77.447l-9.74 9.74.711 3.431 3.431.711 9.74-9.74-4.142-4.142z" fill="#E0FDFF"/><path d="M423.382 90.618l3.431.711 9.74-9.74-2.071-2.07-11.1 11.1z" fill="#C7DEE0"/><path d="M435.628 77.46l1.882-1.88.91.91-1.881 1.881-.911-.91z" fill="#fff"/><path d="M436.083 77.916l1.882-1.881.455.455-1.881 1.881-.456-.455z" fill="#E9E9EB"/><path d="M434.933 73.913l.91-.91 5.154 5.154-.91.91-5.154-5.154z" fill="#0065A3"/><path d="M432.516 77.66l2.111-2.111 3.823 3.823-2.111 2.111-3.823-3.823z" fill="#E0FDFF"/><path d="M434.427 79.572l2.111-2.111 1.912 1.911-2.111 2.111-1.912-1.911z" fill="#C7DEE0"/><path d="M431.421 77.424l.91-.91 5.155 5.154-.911.91-5.154-5.154z" fill="#00C0F1"/><path d="M431.421 77.424l.91-.91 5.155 5.154-.911.91-5.154-5.154z" fill="#4A90E2"/><path d="M437.51 76.49l.91-.91 2.577 2.577-.91.91-2.577-2.577z" fill="#1C4484"/><path d="M433.998 80.001l.91-.91 2.578 2.577-.911.91-2.577-2.577z" fill="#3D75B8"/></g><path d="M416.41 191.31h-26.827v-3.401h26.827v3.401zm31.756-5.102h-3.444v3.401h3.444v-3.401zm-58.584 28.644v3.401h14.603v-3.401h-14.603zm18.047 0v3.401h26.449v-3.401h-26.449zm17.02-8.982v3.401h33.945v-3.401h-33.945zm-35.067 0v3.401h31.623v-3.401h-31.623zm72.455 0v3.401h42.707v-3.401h-42.707zm-72.455-8.981v3.401h55.14v-3.401h-55.14zm91.923 0v3.401h23.239v-3.401h-23.239zm-33.339 0v3.401h29.894v-3.401h-29.894z" fill="#B2D1EF"/><path stroke="#2F6EB9" stroke-dasharray="1 3" d="M320.484 188.712h58.082m-211.298-55.865h58.082"/><path fill="#fff" d="M10 6h158v210H10z" filter="url(#c)"/><path d="M81.888 29.102H55.062v-3.401h26.826v3.401zM91.614 24H88.17v3.401h3.444V24zM55.061 52.644v3.401h14.602v-3.401H55.061zm18.047 0v3.401h26.449v-3.401h-26.45zm17.02-8.981v3.4h33.944v-3.4H90.128zm-35.067 0v3.4h31.623v-3.4H55.061zm0-8.982v3.402h55.14V34.68h-55.14z" fill="#B2D1EF"/><circle cx="87" cy="115" r="40" fill="url(#d)"/><path d="M82.287 110.473c-1.108 4.327.222 15.203.222 15.203l9.185.332-2.103-17.422-7.304 1.887z" fill="#0F4692"/><path d="M90.504 80.023c.447.191 1.413 1.753 2.07 3.492 1.86 4.928-.16 8.628-.16 8.628L89.17 88.57s.954-7.273.89-7.719c-.063-.447.444-.83.444-.83z" fill="#30537B"/><path d="M85.717 93.31c-.505-.514 6.444-6.646 6.055-6.971-.087.05-3.31-1.3-3.342-7.382-.013-2.238-4.815 4.494-4.815 4.494 1.233.696 2.434 1.282 1.99 3.053-.743.925-1.13 1.47-1.443 1.491.024.204 2.387 6.854 1.555 5.316z" fill="#E9B49D"/><path d="M84.942 85.282l4.422 3.573 1.758-2.006s-.28-.974-.811-1.604c-1.015-1.202-1.735-3.532-1.735-3.532s-1.755 2.675-3.634 3.57z" fill="#D8A48D"/><path d="M90.311 85.837c-.83 1.498-3.856 4.494-4.594 4.939 0 0-1.039-2.293-.83-3.33.034-.168-1.123.944-1.382.944-.263 0-1.397 21.846-1.107 23.303.091.462 8.466.999 8.743.721.784-.787 2.2-25.262 2.2-25.262l-3.03-1.315z" fill="#79B9DD"/><path d="M91.029 85.726s-.678 1.245-2.065 3.367c-1.255 1.923-2.49 5.659-2.86 6.399-.37.74-.387 7.62-.387 9.321 0 1.701-.148 23.044-.148 23.044l10.772-.886s-.663-11.688-.885-16.276c-.22-4.587-1.623-9.396-1.623-10.506 0-1.109.369-4.291.518-6.955.144-2.663.922-5.861.922-5.861s-3.881-1.56-4.244-1.647zm-5.607 1c-1.164.55-1.107.775-2.139 1.442-.703.453-1.975 9.303-1.825 10.042.146.74.754 3.569.164 7.269s-.773 21.417-.773 21.417l2.617.556s.11-14.243.26-16.314c.148-2.071.074-14.018.22-15.054.148-1.035.056-5.703.388-6.696.332-.998 1.088-2.662 1.088-2.662z" fill="#fff"/><path d="M94.573 93.234c-.148 2.664-.519 5.846-.519 6.955s1.403 5.919 1.624 10.506c.22 4.588.885 16.276.885 16.276l-3.895.321c-.31-6.981-.42-14.799-2.524-25.975-.74-3.92 2.201-11.757 3.91-13.334.276.11 1.096.333 1.096.333s-.432 2.255-.578 4.918zm-4.539-8.506l1.383 1.165.72 2.275-2.73 1.258.627 1.183s-3.818 5.271-4.15 6.048c-.333.777.719-3.773 1.715-5.437.996-1.665 1.928-4.145 2.287-5.087.36-.942.148-1.405.148-1.405zm-6.088 11.928l-.959-6.898.922-.887-.626-.703 1.622-1.22.885-.74s-.681 1.183-1.069 2.181c-.386 1-.775 8.267-.775 8.267z" fill="#E3E7EE"/><path d="M98.46 113.717c-.007-.373-.015-2.021-.015-2.021l-1.536-.252-.475 1.915c-.31.507-.486.856-.569 1.12l-.012-.002c-.048.376-.473 1.313-.333 1.449.096.091.423-.101.642-.337a4.468 4.468 0 0 1-.343.829c-.135.233-.512.923-.534 1.087-.028.247.16-.037.433-.226.007-.005.011-.012.018-.017-.17.246-.314.482-.32.585-.007.21.255.105.483-.132.189-.198.663-.957.818-1.208-.197.322-.891 1.473-.73 1.51.141.034.398-.204.632-.484-.054.16-.07.277-.009.288.231.042.912-.785 1.274-1.281.216-.292.582-2.45.576-2.823z" fill="#E9B49D"/><path d="M93.527 88.252c.618-.592 1.113-1.276 2.005-.51.664.57 3.817 11.706 3.817 12.95 0 1.243.319 11.992.319 11.992l-3.627-.096s-.319-11.61-.7-12.853c-.382-1.244-1.862-6.803-2.164-7.91-.572-2.106.35-3.573.35-3.573z" fill="#fff"/><path d="M84.426 117.658c-.327 1.89-.46 7.555.059 8.387.515.833 1.642 15.289 1.62 16.11-.042 1.449-1.547 3.436-3.707 4.382 1.185.794 3.052 1.631 4.814-1.219.64-1.039 1.899-.326 2.157-1.035.588-1.622-.323-1.502-.433-3.272-.153-2.444 2.164-12.141.556-16.002-.986-2.356-.38-5.636-.628-6.458-.249-.825-4.438-.893-4.438-.893z" fill="#E3B2A9"/><path d="M89.26 142.025c.51.407 1.074 1.264.767 2.285-.306 1.033-.974 2.608-.771 3.426-.546.13-.735-.088-.735-.088s-.037-2.072-.184-1.96c-.443.332-1.255.999-2.31 1.951-1.02.925-4.054.558-4.258.249-.205-.308-.463-1.068.356-1.377.821-.307 1.537-.822 1.537-.822s1.19 1.282 2.366.166c1.35-1.278 3.232-3.83 3.232-3.83z" fill="#202020"/><path d="M85.584 124.48c.429 1.727 8.615 15.385 8.463 19.375-.032.843-.695 2.352-1.76 4.119-1.246 2.066.41 2.333 2.13 1.254.955-.598 2.697-3.366 2.87-5.087.138-1.388-.786-1.575-1.03-2.358-2.342-7.513.098-13.314-5.172-16.515-2.28-1.386-5.501-.788-5.501-.788z" fill="#EFD6D0"/><path d="M96.763 142.411c.4 1.043.008 1.989-.383 3.105-.33.948-.648 2.116-1.741 2.644-1.838.884-2.132-.738-2.132-.738s-2.206 2.249-.662 3.206c.792.493 2.096.186 3.309-.441 1.022-.527 1.225-2.605 1.717-3.981.49-1.377 1.077-1.77.881-2.458-.196-.687-.989-1.337-.989-1.337z" fill="#030104"/><path d="M97.361 144.486c-.1.638-.688 3.882-.443 4.08l-.44.049s-.245-.984-.49-1.18c-.246-.197 1.373-2.949 1.373-2.949z" fill="#030104"/><path d="M81.969 83.781c-.092-.207.106-.416-.075-1.491-.133-.27-.225-.473-.26-.556-1.25-2.86-.787-5.209 1.484-6.203 2.268-1 4.457-.672 5.713 2.191 1.248 2.859.179 5.13-.844 6.408-.34.425-2.317 1.895-2.914 1.812-.8-.11-1.578-.987-2.198-1.918-.255.038-.737.138-.906-.243z" fill="#E9B49D"/><path d="M80.786 78.809c.083-.001 2.633.017 2.77.125 1.955.79 2.305 1.304 2.552 1.532.193.187.635.238.65-.158 0 0 .307-.62.758-.141.682.726.177 1.815.177 1.815l1.371 1.075s3.1-3.72.456-7.053c-2.497-3.144-6.396-1.58-8.017.335-.861 1.016-.717 2.47-.717 2.47z" fill="#30537B"/><path d="M66.71 147.507c0 2.434-1.73 4.407-3.863 4.407H28.71c-2.133 0-3.863-1.973-3.863-4.407 0-2.436 1.73-4.409 3.864-4.409h34.135c2.134 0 3.863 1.973 3.863 4.409z" fill="#BDBDBD"/><path d="M64.347 146.231c.252-.438.451-.961.592-1.558 1.704-5.502 2.9-18.412 2.9-33.466 0-16.008-1.353-29.586-3.231-34.414a4.54 4.54 0 0 0-.537-1.122c-.166-.268-.336-.464-.51-.592-.879-.827-2.022-1.032-3.008-1.001L32.944 74C26.898 74 22 90.722 22 111.351c0 20.63 4.899 37.354 10.942 37.354h27.611c.435 0 1.703-.264 2.798-1.245.343-.136.676-.561.996-1.229z" fill="url(#e)"/><path d="M65.534 113.899c0 16.656-.934 30.157-2.084 30.157s-2.083-13.501-2.083-30.157c0-16.654.933-30.156 2.083-30.156 1.15 0 2.084 13.502 2.084 30.156z" fill="url(#f)"/><path d="M21.587 107.831c-.03 1.121-.046 2.256-.046 3.405 0 20.629 4.898 37.353 10.942 37.353h27.611c.322 0 1.719.101 2.545-.373-1.597-5.907-3.434-21.463-3.76-40.385H21.586z" fill="#D9DEE8"/><path d="M58.886 111.531c0-19.868 1.816-35.975 4.06-35.975.09 0 .18.037.271.09-.265-.47-.538-.72-.818-.72-2.293 0-4.15 16.459-4.15 36.762 0 20.302 1.857 36.762 4.15 36.762.373 0 .733-.445 1.077-1.261-.174.202-.35.317-.53.317-2.244-.001-4.06-16.108-4.06-35.975z" fill="#BFC6D2"/><path d="M132.066 149.795c0 .747-.679 1.354-1.514 1.354H75.515c-.838 0-1.515-.607-1.515-1.354v-3.16c0-.748.678-1.356 1.515-1.356h55.037c.835 0 1.514.608 1.514 1.356v3.16z" fill="#BDBDBD"/><path d="M78.349 148.073c0 .865.575 1.569 1.284 1.569h46.889c.709 0 1.284-.704 1.284-1.569l.994-2.794H77.265l1.084 2.794z" fill="#CBD1D9"/><path d="M127.215 147.726c0 .757-.562 1.373-1.253 1.373h-45.7c-.69 0-1.252-.616-1.252-1.373l-7.512-17.395c0-.758.56-1.373 1.252-1.373h60.099c.691 0 1.252.615 1.252 1.373l-6.886 17.395z" fill="#E3E7EE"/><path d="M74.345 137.244h56.974l-.577 1.913H75.114l-.77-1.913z" fill="#CBD1D9"/><path d="M132.324 136.918c-.286.759-1.092 1.364-1.804 1.364l-55.503-.002c-.714 0-1.541-.605-1.856-1.364l-2.708-6.545c-.378-.918-.04-1.677.766-1.677h62.735c.805 0 1.174.759.828 1.677l-2.458 6.547z" fill="#E3E7EE"/><path d="M157.144 125.556c.571.321.276.588-.668.588h-94.1c-.994 0-1.303-.275-.703-.603l5.11-2.811c.47-.257 1.53-.459 2.38-.459l80.825.082c.817 0 1.832.202 2.28.454l4.876 2.749z" fill="#E0E8F7"/><path d="M157.562 128.822a1.53 1.53 0 0 1-1.526 1.531H62.512a1.53 1.53 0 0 1-1.526-1.531v-1.913c0-.846.683-1.531 1.526-1.531h93.524c.842 0 1.526.685 1.526 1.531v1.913z" fill="url(#g)"/><path d="M81.328 122.533c-.235.754-.116 1.897-2.253 2.244l-11.119-1.24c-1.169.005-1.992-.864-1.77-1.957l1.697-3.11c.24-1.183 2.118-2.272 3.312-2.05l10.22 2.007c.632.119.923.862.674 1.657l-.761 2.449z" fill="#fff"/><path d="M138.034 115.787c-.587 1.752-2.278 2.241-4.772 3.043-2.491.803-3.316.379-3.316.379l-.082 3.841s2.481-.316 3.531-.105c1.05.208 2.792.885 2.995.007.206-.878.348-2.401 2.365-3.395 1.562-.772 1.5-4.495.891-4.823-1.176-.638-1.612 1.053-1.612 1.053z" fill="#1E3857"/><path d="M100.684 116.191c.863.214 5.338.751 6.935.83 5.03.253 12.793.19 14.252.384 1.921.251 13.424.446 13.424.446l-.88 4.046s-11.855-.321-15.768-2.736c-5.991.564-12.66 3.616-12.66 3.616l-8.229-3.013 2.926-3.573z" fill="#1E3857"/><path d="M100.558 116.32c2.274-.144 4.865.59 7.444.828 3.436.32 11.942 1.09 13.232 1.341 1.791.352 14.181.901 15.079.893.007 1.98-1.336 5.549-1.336 5.549s-12.9-.658-15.905-.638c-4.755.035-11.642.065-12.089.447-.989.852-5.628.578-7.698-.129-2.65-.903 1.273-8.291 1.273-8.291z" fill="#2D517C"/><path d="M139.794 117.257c-.719 1.698-2.444 2.054-4.989 2.658-2.546.608-3.338.121-3.338.121l-.228 2.575s2.346 1.127 3.378 1.417c1.03.29 2.714 1.102 2.985.244.272-.862.535-2.368 2.62-3.203 1.621-.648 1.845-4.361 1.267-4.738-1.126-.729-1.695.926-1.695.926z" fill="#2D517C"/><path d="M81.368 117.805c.6-.594 2.114-1.723 2.114-1.723 1.679-.359 6.391-2.001 7.236-2.083 1.183-.11 2.728.87 3.215 1.338.49.468 10.061.727 10.061.727s.089 8.38-.384 9.186c-.29.501-13.142-.346-16.156-.757-3.015-.412-5.039-1.808-7.811-4.99.722-1.205.833-.803 1.725-1.698z" fill="#4A90E2"/><path d="M113.3 123.041c.356-.12-.628-.45-.938-.556-.313-.111-1.972-.176-1.972-.176s-1.595.516-2.149.567c-2.143-.09-9.514-1.52-10.031-1.604-.591-.098-8.73-1.246-9.67-1.95 0 0-2.139 2.905-1.91 3.042 3.913 2.329 10.168 2.086 11.055 2.193.887.107 10.135.088 10.562.099.302-.024.895.002 1.073-.015.716-.064 1.289-.35 1.434-.368.146-.022.718-.143 1.166-.126.443.013.759.035.927-.101.06-.049-.104-.251-1.569-.229.177.02 1.701.004 1.773-.066.147-.131-.662-.247-.617-.232.736.208.979-.065.835-.174-.165-.128-1.99-.399-1.99-.399l.765-.049c.001 0 .906.267 1.256.144z" fill="#C69782"/><path d="M81.542 120.927c-.261.719.154 2.398 1.65 3.044 1.497.647 7.6 1.853 7.6 1.853l.954-6.506s-5.418-1.003-7.253-1.053c-1.834-.047-2.753 2.115-2.95 2.662z" fill="#3C7BC6"/><path d="M82.982 116.185c-1.187.237-1.252.254-2.366-.537.019-.167.032-.336.03-.502-.011-.775-1.063-1.49-2.516-1.936-.093-.381-.244-.73-.513-.69a9.523 9.523 0 0 1-.843.377c-1.25-.204-2.631-.212-3.852.076-3.28.778-3.7 2.437-3.086 5.051.617 2.619 12.417 2.362 12.857.869.494-1.701 1.33-2.915.289-2.708z" fill="#C69782"/><path d="M71.4 115.106c-.939-1.208-.111-2.66 2.38-2.692 1.324 1.841.99 2.837.99 2.837l-3.37-.145z" fill="#243C58"/><path d="M71.02 114.147l.768.799c.698-1.097 2.343-.934 2.702-1.102-.025-.295-.574-1.21-.737-1.434-1.49-.293-3.07 1.043-2.733 1.737z" fill="#2B5484"/><path d="M71.763 113.643c-.32.243-3.747 1.547-1.805 6.033.73 1.684 1.476 2.5 4.409 3.187 2.649.618 7.742 1.621 7.742 1.621l1.015-5.613-6.31-.976s-.948.113-1.533.007c-.595-.111-.897-.657-.537-.952.25-.209-2.558-2.608-2.558-2.608l-.423-.699z" fill="#243C58"/><path d="M70.97 113.703c.512-.013.73.933.73.933-.005.207-2.878 1.9-1.566 5.252.226.579.528.942.432 1.001-.162.098-.484-.573-.59-.696-.165-.194-1.361-3.065-.47-4.822.476-.949.953-1.656 1.464-1.668z" fill="#2B5484"/><path d="M74.06 95.778c-1.433-.095-3.783-.666-4.265-.801-.482-.135-1.796-1.056-2.334-1.29-.343-.15-.683-.243-1.466-.58-.519-.221-.656-.022-.256.216.399.238 1.004.63 1.004.63s1.186.85.827 1.403c-.153.235-1.17-.107-1.42-.12-.279-.012-.394 0-.048.192.407.224.501.287.92.503.466.24.721.665 2.003.431 0 0 3.5 1.061 4.238.98.737-.081.796-1.564.796-1.564z" fill="#E9B49D"/><path d="M66.662 93.635c-.35.225-.935 1.27-.74 1.344.194.072.882-.893 1.02-.908.14-.015.256.207.256.207s-1.144.64-.893.799c.251.16 1.097-.635 1.097-.635s-.958.62-.667.729c.293.108 1-.25 1.114-.497.112-.246-1.187-1.04-1.187-1.04z" fill="#D8A48D"/><path d="M70.592 94.95s6.044.893 6.87 1.085l5.822-7.867-.922 10.1s-3.053 1.403-3.882 1.595c-.825.19-7.76-.319-7.76-.319l-.128-4.593z" fill="#fff"/><path d="M80.643 78.039c-.319.638-.319 2.233.063 2.615.382.383 2.036-.127 2.036-.127v-.957l.382.893.825-.19-.252-.766.571.637.892-.575s-2.609-1.658-2.927-1.658c-.318 0-1.59.128-1.59.128z" fill="#30537B"/><defs><filter id="a" x="369.568" y="74.058" width="178.223" height="182.229" filterUnits="userSpaceOnUse" color-interpolation-filters="sRGB"><feFlood flood-opacity="0" result="BackgroundImageFix"/><feColorMatrix in="SourceAlpha" values="0 0 0 0 0 0 0 0 0 0 0 0 0 0 0 0 0 0 127 0"/><feOffset dy="4"/><feGaussianBlur stdDeviation="5"/><feColorMatrix values="0 0 0 0 0.2375 0 0 0 0 0.2375 0 0 0 0 0.2375 0 0 0 0.25 0"/><feBlend in2="BackgroundImageFix" result="effect1_dropShadow"/><feBlend in="SourceGraphic" in2="effect1_dropShadow" result="shape"/></filter><filter id="c" x="0" y="0" width="178" height="230" filterUnits="userSpaceOnUse" color-interpolation-filters="sRGB"><feFlood flood-opacity="0" result="BackgroundImageFix"/><feColorMatrix in="SourceAlpha" values="0 0 0 0 0 0 0 0 0 0 0 0 0 0 0 0 0 0 127 0"/><feOffset dy="4"/><feGaussianBlur stdDeviation="5"/><feColorMatrix values="0 0 0 0 0.2375 0 0 0 0 0.2375 0 0 0 0 0.2375 0 0 0 0.25 0"/><feBlend in2="BackgroundImageFix" result="effect1_dropShadow"/><feBlend in="SourceGraphic" in2="effect1_dropShadow" result="shape"/></filter><linearGradient id="d" x1="87" y1="75" x2="87" y2="155" gradientUnits="userSpaceOnUse"><stop stop-color="#CBE4F8"/><stop offset="1" stop-color="#E7EEF5"/></linearGradient><linearGradient id="e" x1="44.919" y1="74" x2="44.919" y2="148.705" gradientUnits="userSpaceOnUse"><stop stop-color="#F2F2F2"/><stop offset="1" stop-color="#fff"/></linearGradient><linearGradient id="f" x1="63.45" y1="83.743" x2="63.45" y2="144.056" gradientUnits="userSpaceOnUse"><stop stop-color="#AAAFB7"/><stop offset="1" stop-color="#6A6D72"/></linearGradient><linearGradient id="g" x1="109.274" y1="125.378" x2="109.274" y2="130.353" gradientUnits="userSpaceOnUse"><stop stop-color="#D2D8DE"/><stop offset="1" stop-color="#E9F0F8"/></linearGradient><clipPath id="b"><path fill="#fff" transform="translate(419 73)" d="M0 0h22v22H0z"/></clipPath></defs></svg>