<svg width="566" height="446" viewBox="0 0 566 446" fill="none" xmlns="http://www.w3.org/2000/svg"><path fill="url(#a)" d="M163.248 34.924h177.627v215.698H163.248z"/><path fill="url(#b)" d="M173.248 43.924h177.627v215.698H173.248z"/><path fill="#fff" d="M183.248 53.923h177.627v215.698H183.248z" filter="url(#c)"/><path d="M344.043 165.05H199.81a3.832 3.832 0 0 1-3.824-3.843V71.884c0-2.122 1.712-3.843 3.824-3.843h144.233c2.111 0 3.823 1.72 3.823 3.843v89.323c0 2.124-1.712 3.843-3.823 3.843z" fill="#4A90E2"/><path d="M341.602 74.3H202.249v84.491h139.353V74.299z" fill="#71A8E8"/><path d="M226.916 181.168h-30.16v-3.821h30.16v3.821zm35.701-5.732h-3.872v3.821h3.872v-3.821zm-65.862 32.179v3.821h16.417v-3.821h-16.417zm20.289 0v3.821h29.735v-3.821h-29.735zm19.135-10.09v3.821h38.161v-3.821h-38.161zm-39.424 0v3.821h35.552v-3.821h-35.552zm81.456 0v3.821h48.012v-3.821h-48.012zm-81.456-10.09v3.821h61.99v-3.821h-61.99zm103.342 0v3.821h26.126v-3.821h-26.126zm-37.48 0v3.821h33.607v-3.821h-33.607zm-65.862 61.747v3.821h16.417v-3.821h-16.417zm20.289 0v3.821h29.735v-3.821h-29.735zm19.135-10.09v3.821h38.161v-3.821h-38.161zm-39.424 0v3.821h35.552v-3.821h-35.552zm81.456 0v3.821h48.012v-3.821h-48.012zm-81.456-10.09v3.821h61.99v-3.821h-61.99zm103.342 0v3.821h26.126v-3.821h-26.126zm-37.48 0v3.821h33.607v-3.821h-33.607z" fill="#B2D1EF"/><g clip-path="url(#d)"><path d="M262.894 155.54l1.181 12h18.11l2.166-16.131-12.796-1.967c0 .001-10.827-.983-8.661 6.098z" fill="#3978C1"/><path opacity=".5" d="M260.729 150.622c-.224.754 23.032 3.344 26.772-.983 6.178-7.15-25.197-4.328-26.772.983z" fill="#3978C1"/><path d="M273.918 103.608s-9.253 2.755-9.646 5.508c-.394 2.754 0 40.917 0 40.917s18.111 1.573 20.079 0c1.969-1.574 4.331-43.474 2.559-44.851-1.771-1.377-8.267-2.361-8.267-2.361l-4.725.787z" fill="url(#e)"/><path d="M282.384 103.214s-4.233 8.164-3.839 17.409c.394 9.245.787 48.195.787 48.195l9.843-2.361v-54.292s-1.571-5.372-6.791-8.951z" fill="#F8FDFF"/><path opacity=".47" d="M278.446 136.655l12.795-1.18-3.149-19.081s4.33 11.212-10.434 12.787c-14.887 1.586 1.235 6.233 1.235 6.233" fill="#6FBCFF"/><path d="M271.623 104.379s-2.33 5.621-2.724 20.964c-.394 15.344-.985 43.475-.985 43.475l-9.252-.787s3.347-54.884 5.512-59.015c2.166-4.131 7.449-4.637 7.449-4.637z" fill="#F8FDFF"/><path d="M271.653 104.296s-7.283 1.573-9.842 3.541c-2.559 1.966-7.874 15.54-8.858 15.343-.985-.197-9.253-10.426-10.631-11.015 0 0-3.346 5.113-4.331 5.31 0 0 10.04 13.967 13.583 16.131 3.544 2.164 12.008-9.639 12.008-9.639l8.071-19.671z" fill="#F8FDFF"/><path d="M268.75 84.251c0 .35-1.746 5.584 0 11.515 1.745 5.933 4.888 5.234 4.888 5.234s-.349 2.443-1.397 3.49l1.746 3.838 7.805-4.918s-2.916-6.248-.472-11.83c2.444-5.584-6.983-14.307-12.222-7.329" fill="#FFC6BA"/><path d="M280.304 89.835s.315 5.038-2.205 5.667c-2.521.63-5.041-1.889-7.247-.944-2.205.944-2.52-.945-2.52-.945s-.63 4.093-.63 5.038c0 .945 1.89 3.463 4.095 3.463 2.206 0 8.507-3.463 9.452-5.352.945-1.89 0-6.927 0-6.927h-.945z" fill="#26568F"/><path d="M276.082 85.298s-6.606 2.049-8.38-.349c-2.643-3.57 2.444-5.583 4.888-4.536 2.444 1.047 10.476-1.395 9.079 3.839 0 0 4.19 1.046 2.095 5.234-2.095 4.187-2.793 6.28-2.793 6.28v-4.535s-2.444-6.63-4.889-5.933z" fill="#26568F"/><path d="M239.495 112.186s-1.336-1.405-1.579-2.549a.188.188 0 0 0-.347-.056c-.357.618-.75 1.741.325 2.681 1.575 1.378 1.601-.076 1.601-.076z" fill="#FFC6BA"/><path d="M241.24 114.82c-.197 0-.985-2.559-2.362-2.755-1.378-.197-4.134 0-4.528 0-.393 0-3.74-2.164-5.315-.984 0 0 4.134 1.377 4.725 2.164.59.787 3.346 2.754 6.102 3.148" fill="#FFC6BA"/><path opacity=".47" d="M283.373 104.275l1.667 6.512h-2.165l.983 4.328-5.175 9.935 6.357-9.345-1.182-4.524h1.969l-2.454-6.906zm-12.408.366l-5.709 5.065h1.378l-1.772 3.935 3.544 8.262-2.756-8.262 1.771-4.131-.984-.394 4.528-4.475z" fill="#6FBCFF"/><path d="M251.673 119.836h16.536l6.102 20.262h-16.535l-6.103-20.262z" fill="#86BEFF"/><path d="M274.803 131.738s-1.397-2.159-3.749-2.456l.535 1.777s-4.069-.895-5.053-1.682c-.984-.787-.591 2.95.394 3.738.984.787 2.559 1.77 3.149 2.163.591.393 4.921-.196 4.921-.196l-.197-3.344z" fill="#FFC6BA"/><path d="M282.481 103.51s8.661 2.164 11.417 4.722c2.756 2.557 4.725 20.458 3.544 22.621-1.182 2.165-20.769 5.803-22.343 5.803 0 0 0-5.311-1.378-6.097 0 0 14.272-2.459 14.862-3.837.591-1.377-.197-19.08-6.102-23.212z" fill="#F8FDFF"/><path d="M273.749 92.639c.93-.03 1.647-1.207 1.603-2.632-.045-1.425-.834-2.556-1.763-2.528-.929.03-1.647 1.208-1.602 2.633.044 1.424.833 2.556 1.762 2.527zm-4.877-.028c.929-.029 1.647-1.207 1.602-2.632-.044-1.425-.834-2.556-1.763-2.528-.93.03-1.647 1.208-1.603 2.633.045 1.425.834 2.556 1.764 2.527zm6.423-2.577l6.497 1.18m-11.417-1.376s.787-.59 1.62-.089" stroke="#1C3552" stroke-width=".5" stroke-miterlimit="10"/><path d="M280.999 94.174c.605.298 1.476-.232 1.944-1.183.468-.951.356-1.964-.249-2.261-.606-.298-1.476.232-1.944 1.183-.468.951-.357 1.964.249 2.261z" fill="#FFC6BA"/></g><path d="M387.886 181.276l-24.723 13.58-24.829-39.044 30.031-10.425 19.521 35.889z" fill="#26568F"/><path d="M386.318 180.104l-23.122 12.7-23.218-36.512 28.082-9.748 18.258 33.56z" fill="#fff"/><path d="M394.788 173.275s-4.304-2.057-6.193-3.132c-1.889-1.075-6.747-2.551-7.14-2.902-.393-.35-14.404-1.214-15.253-1.947-.85-.732-1.676 1.718 1.955 2.513 3.631.794 8.684 2.737 8.962 4.156.277 1.417-3.73 1.754-4.137 2.922-.405 1.168.114.905.689 1.156.575.25 4.765-2.069 6.607-1.411 1.844.658 4.661-.253 6.074.231 1.412.481 8.282 2.791 8.282 2.791l.154-4.377z" fill="#EEA886"/><path d="M387.02 176.312l-2.218-.819s2.765-6.484 3.97-6.327c1.391.182 3.125.64 3.125.64l-4.877 6.506z" fill="#EAD8CF"/><path d="M386.515 177.431c.282-.213 4.711-8.702 4.711-8.702l9.463 1.285-5.113 10.054-9.061-2.637z" fill="#DA9B5B"/><path d="M361.957 189.96s-3.614-3.252-5.364-4.612c-1.749-1.36-5.032-5.361-5.516-5.594-.485-.232-6.753-13.09-7.777-13.606-1.021-.514.968-2.246 3.131.864 2.162 3.109 5.964 7.112 7.409 6.82 1.447-.291.203-4.195 1.146-5.032.944-.836.901-.245 1.36.198.46.443-.095 5.293 1.242 6.773 1.337 1.479 1.575 4.487 2.582 5.629 1.005 1.143 5.857 6.711 5.857 6.711l-4.07 1.849z" fill="#EEA886"/><path d="M439.816 363.75s.782 5.423.879 6.239c.098.815 8.701-.48 8.701-.48l.696-6.457c-.002 0-9.202-.068-10.276.698z" fill="#365171"/><path d="M440.604 369.299s-2.725 3.268-5.361 4.692c-2.636 1.425-6.778 1.99-8.337 3.465-1.126 1.065-4.098 5.648 6.849 5.555 10.946-.093 16.224.648 17.399-1.109 1.172-1.758-1.698-12.969-1.698-12.969s-2.591.931-8.852.366z" fill="#1E2732"/><path d="M378.181 363.75s.782 5.423.881 6.239c.096.815 8.699-.48 8.699-.48l.696-6.457s-9.2-.068-10.276.698z" fill="#365171"/><path d="M378.971 369.299s-2.725 3.268-5.361 4.692c-2.636 1.425-12.336 2.596-13.895 4.071-1.125 1.064-2.996 5.349 12.408 4.949 10.944-.285 16.225.648 17.4-1.109 1.171-1.758-1.697-12.969-1.697-12.969s-2.446.994-8.855.366z" fill="#1E2732"/><path d="M432.693 224.374s8.083 12.832 7.479 24.43c-.602 11.6 2.931 24.265 4.145 36.382 1.354 13.508 6.893 45.488 7.095 52.713.201 7.227-.859 30.301-.859 30.301l-11.089.253s-9.313-55.908-11.724-61.614c-2.411-5.705-14.373-46.375-14.776-50.939-.403-4.563 19.729-31.526 19.729-31.526z" fill="#292C47"/><path d="M390.145 226.109s-6.093 31.792-6.896 38.889c-.804 7.101-1.341 34.358-1.742 38.794-.403 4.438-2.679 58.065-4.825 64.657h14.177s10.88-38.984 10.88-57.43c0-18.446 8.408-40.1 13.835-52.27 5.427-12.169 17.848-12.457 21.185-35.036 0 0-42.098-4.765-46.614 2.396z" fill="#292C47"/><path d="M419.204 116.486s-10.847-4.049-15.849 4.203c-5.003 8.252-4.521 24.772.948 26.804 5.47 2.031 13.683.968 16.483-4.194 2.798-5.163 5.327-12.63 5.206-17.618-.122-4.988-3.937-7.755-6.788-9.195z" fill="#EEA886"/><path d="M405.481 147.871s.452 2.925-.294 4.368c-.746 1.442 14.054 1.48 14.054 1.48s1.203-7.843 3.479-14.469c2.279-6.625-17.239 8.621-17.239 8.621z" fill="#EEA886"/><path d="M422.72 139.25s-1.022 1.683-5.191 1.031c-4.17-.655-9.258-6.198-10.998-6.807-1.74-.607-1.758-1.631-1.758-1.631l-1.091 1.592-1.848.117s1.686-4.959-.857-6.98c-2.545-2.024 2.64-16.053 16.013-11.383 0 0 10.273 2.831 9.899 8.667-.373 5.837-1.871 12.486-4.169 15.394z" fill="#26568F"/><path d="M404.307 152.064s.046-2.755 1.296-3.019c1.25-.266 13.793-1.47 15.327-.867v3.21s-2.955 1.817-16.623.676z" fill="#D1DAFF"/><path d="M405.05 129.721c.232-.977 2.724-3.777 3.679-.781.954 2.995-1.442 7.026-2.779 6.681-1.335-.345-1.494-3.417-.9-5.9z" fill="#EEA886"/><path d="M354.525 184.616c.006-.003.014-.004.021-.003-.085.039-.098.042-.021.003zm87.285 70.325s-6.654 1.957-17.998 3.207c-11.345 1.249-39.691-.453-39.87-1.79-.18-1.34 6.096-49.874 5.74-52.374-.357-2.5-.549-11.405-.549-11.405-.139 2.44-2.627 12.408-5.631 17.841-1.086 1.964-4.724 8.116-6.478 6.717-8.492-6.777-21.642-32.308-22.475-32.524.7-.303 6.231-2.849 7.008-3.107.68-.226 6.806 6.255 10.519 10.273a416.432 416.432 0 0 1 2.829 3.092c1.073-2.409 4.977-17.591 6.191-22.846 2.737-11.85 2.315-12.342 2.315-12.342 8.3-2.51 20.898-7.615 20.898-7.615l16.624-.678s15.257 3.356 21.264 6.069c.571.257.574 13.6 2.138 17.1l-4.981 10.502s-2.877 20.803-3.474 30.055c-.28 4.244 5.93 39.825 5.93 39.825z" fill="#323657"/><path d="M445.022 191.879c-.435 1.4-2.406 2.583-3.685 3.099a4.753 4.753 0 0 1-2.661.268l-.651-.12-11.393-2.111s-2.493-28.687 15.562-35.56c.479.156 6.816 21.581 2.828 34.424z" fill="#323657"/><path d="M441.337 194.98a4.754 4.754 0 0 1-2.661.268l-.652-.12 1.124-14.658 2.189 14.51zm-66.433-.11l-1.393 5.894s-1.511-5.914-1.437-8.986a432.932 432.932 0 0 1 2.83 3.092z" fill="#252840"/><path d="M422.294 117.458s14.22-1.639.243 22.093l-.243-22.093zm-72.531 36.262l-1.445-2.482 11.384-3.926 1.445 2.469-11.384 3.939z" fill="#26568F"/><rect width="5.619" height="51.1" rx="2.809" transform="rotate(52.266 -111.718 275.097) skewX(-.039)" fill="#1E3856"/><path d="M232.462 177.68c0 17.542-14.23 31.765-31.788 31.765-17.559 0-31.789-14.223-31.789-31.765 0-17.541 14.23-31.764 31.789-31.764 17.558 0 31.788 14.223 31.788 31.764z" fill="#4A90E2" fill-opacity=".15" stroke="#26568F" stroke-width="5"/><defs><filter id="c" x="173.248" y="47.923" width="197.627" height="235.698" filterUnits="userSpaceOnUse" color-interpolation-filters="sRGB"><feFlood flood-opacity="0" result="BackgroundImageFix"/><feColorMatrix in="SourceAlpha" values="0 0 0 0 0 0 0 0 0 0 0 0 0 0 0 0 0 0 127 0"/><feOffset dy="4"/><feGaussianBlur stdDeviation="5"/><feColorMatrix values="0 0 0 0 0.2375 0 0 0 0 0.2375 0 0 0 0 0.2375 0 0 0 0.25 0"/><feBlend in2="BackgroundImageFix" result="effect1_dropShadow"/><feBlend in="SourceGraphic" in2="effect1_dropShadow" result="shape"/></filter><linearGradient id="a" x1="252.062" y1="34.924" x2="252.062" y2="250.622" gradientUnits="userSpaceOnUse"><stop stop-color="#BEBEBE"/><stop offset="1" stop-color="#A8A8A8"/></linearGradient><linearGradient id="b" x1="262.062" y1="43.924" x2="262.062" y2="259.622" gradientUnits="userSpaceOnUse"><stop stop-color="#E7E7E7"/><stop offset="1" stop-color="#CFCFCF"/></linearGradient><linearGradient id="e" x1="275.816" y1="102.821" x2="275.816" y2="150.732" gradientUnits="userSpaceOnUse"><stop stop-color="#2F6BB0"/><stop offset="1" stop-color="#3978C1"/></linearGradient><clipPath id="d"><path fill="#fff" transform="translate(223.72 62.912)" d="M0 0h95.559v95.491H0z"/></clipPath></defs></svg>