<svg width="572" height="262" viewBox="0 0 572 262" fill="none" xmlns="http://www.w3.org/2000/svg"><rect x="229.322" y="29.043" width="135.191" height="231.326" rx="10" fill="#72737A"/><path fill="#B9D8F5" d="M240.338 42.061h112.158v194.274H240.338z"/><circle cx="296.417" cy="248.351" r="6.008" fill="#B8B8B8"/><path fill="#fff" d="M249.35 80.114h95.134v102.144H249.35z"/><path opacity=".2" d="M335.653 144.284h-78.221a2.074 2.074 0 0 1-2.073-2.075V93.956c0-1.146.928-2.076 2.073-2.076h78.221c1.145 0 2.073.93 2.073 2.076v48.253a2.074 2.074 0 0 1-2.073 2.075z" fill="#9ED3FF"/><path d="M336.403 143.533h-78.221a2.073 2.073 0 0 1-2.073-2.075V93.206c0-1.147.928-2.076 2.073-2.076h78.221c1.145 0 2.073.93 2.073 2.076v48.252a2.073 2.073 0 0 1-2.073 2.075z" fill="#4A90E2"/><path d="M335.366 94.243h-76.147v46.177h76.147V94.243z" fill="#71A8E8"/><path d="M335.366 122.001l-15.807-15.825-24.42 24.447-16.58-16.598-19.34 19.361v7.034h76.147v-18.419z" fill="#6194CF"/><path d="M295.139 116.895a6.615 6.615 0 0 0 6.611-6.619 6.615 6.615 0 0 0-6.611-6.618 6.615 6.615 0 0 0-6.611 6.618 6.615 6.615 0 0 0 6.611 6.619z" fill="#FFFDFF"/><path opacity=".2" d="M335.653 144.284h-78.221a2.074 2.074 0 0 1-2.073-2.075V93.956c0-1.146.928-2.076 2.073-2.076h78.221c1.145 0 2.073.93 2.073 2.076v48.253a2.074 2.074 0 0 1-2.073 2.075z" fill="#9ED3FF"/><path d="M336.403 143.533h-78.221a2.073 2.073 0 0 1-2.073-2.075V93.206c0-1.147.928-2.076 2.073-2.076h78.221c1.145 0 2.073.93 2.073 2.076v48.252a2.073 2.073 0 0 1-2.073 2.075z" fill="#4A90E2"/><path d="M335.366 94.243h-76.147v46.177h76.147V94.243z" fill="#71A8E8"/><path d="M335.366 122.001l-15.807-15.825-24.42 24.447-16.58-16.598-19.34 19.361v7.034h76.147v-18.419z" fill="#6194CF"/><path d="M295.139 116.895a6.615 6.615 0 0 0 6.611-6.619 6.615 6.615 0 0 0-6.611-6.618 6.615 6.615 0 0 0-6.611 6.618 6.615 6.615 0 0 0 6.611 6.619z" fill="#FFFDFF"/><path d="M275.489 152.879h-19.128v-2.444h19.128v2.444zm22.644-3.667h-2.456v2.444h2.456v-2.444zM256.36 169.8v2.444h10.412V169.8H256.36zm12.868 0v2.444h18.859V169.8h-18.859zm12.136-6.456v2.445h24.204v-2.445h-24.204zm-25.004 0v2.445h22.549v-2.445H256.36zm51.664 0v2.445h30.452v-2.445h-30.452zm-51.664-6.455v2.445h39.317v-2.445H256.36zm65.545 0v2.445h16.571v-2.445h-16.571zm-23.772 0v2.445h21.315v-2.445h-21.315z" fill="#B2D1EF"/><path fill="#fff" d="M249.35 190.27h95.134v46.065H249.35z"/><path d="M275.489 210.961h-19.128v-2.445h19.128v2.445zm22.644-3.668h-2.456v2.445h2.456v-2.445zm-41.773 20.588v2.445h10.412v-2.445H256.36zm12.868 0v2.445h18.859v-2.445h-18.859zm12.136-6.455v2.445h24.204v-2.445h-24.204zm-25.004 0v2.445h22.549v-2.445H256.36zm51.664 0v2.445h30.452v-2.445h-30.452zm-51.664-6.455v2.444h39.317v-2.444H256.36zm65.545 0v2.444h16.571v-2.444h-16.571zm-23.772 0v2.444h21.315v-2.444h-21.315z" fill="#B2D1EF"/><path fill="#fff" d="M403 8.011h158.223V170.24H403z" filter="url(#a)"/><path d="M546.027 106.917H417.731c-1.878 0-3.4-1.531-3.4-3.421v-79.51c0-1.889 1.522-3.42 3.4-3.42h128.296a3.41 3.41 0 0 1 3.401 3.42v79.51a3.41 3.41 0 0 1-3.401 3.421z" fill="#4A90E2"/><path d="M543.857 26.136H419.901v75.209h123.956V26.136z" fill="#71A8E8"/><path d="M439.842 119.263h-26.827v-3.401h26.827v3.401zm31.757-5.102h-3.444v3.401h3.444v-3.401zm-58.585 28.644v3.401h14.603v-3.401h-14.603zm18.047 0v3.401h26.449v-3.401h-26.449zm17.021-8.981v3.401h33.944v-3.401h-33.944zm-35.068 0v3.401h31.624v-3.401h-31.624zm72.456 0v3.401h42.707v-3.401H485.47zm-72.456-8.981v3.401h55.141v-3.401h-55.141zm91.923 0v3.401h23.24v-3.401h-23.24zm-33.338 0v3.401h29.893v-3.401h-29.893z" fill="#B2D1EF"/><path d="M505.931 42.839l17.669 4.536v28.01c0 3.57.749 7.102 2.2 10.366l2.118 4.766a38.062 38.062 0 0 1 3.037 11.16h-37.421l2.483-8.883a23.723 23.723 0 0 0 .229-11.89l-.416-1.743a5.91 5.91 0 0 0-3.362-4.036l-.103-.046a7.2 7.2 0 0 1-4.104-8.221l4.04-17.325 13.63-6.694z" fill="#fff"/><path d="M525.799 85.751l2.39 4.885-12.758 4.874a5.894 5.894 0 0 1-6.34-1.409l-1.494-1.544-.678.153a10.755 10.755 0 0 1-9.011-2.03l-1.247-.981v-3.948h29.138zm-7.202-10.656a64.044 64.044 0 0 1-3.97 2.09 46.448 46.448 0 0 1-4.665 1.928 46.457 46.457 0 0 1-4.854 1.391 63.661 63.661 0 0 1-4.407.834 21.7 21.7 0 0 0 4.535-.124 25.315 25.315 0 0 0 5.043-1.194 25.287 25.287 0 0 0 4.69-2.202 21.723 21.723 0 0 0 3.628-2.723zm.171 4.076c-2.043.556-4.679 1.28-7.356 1.827-2.674.559-5.381.938-7.477 1.239 2.106.207 4.907.076 7.631-.494 2.727-.556 5.351-1.546 7.202-2.572z" fill="#D1DAFF"/><path d="M522.635 95.554c-1.53.178-3.28.37-5.145.49-1.864.12-3.844.17-5.821.12a65.433 65.433 0 0 1-5.807-.422 98.518 98.518 0 0 1-5.112-.755 27.22 27.22 0 0 0 4.975 1.573c1.863.406 3.886.656 5.915.71 2.03.051 4.063-.094 5.944-.403a27.277 27.277 0 0 0 5.051-1.313zm-1.766 4.014c-1.976 0-4.52-.071-7.035-.43-2.516-.343-4.984-.97-6.884-1.51a17.81 17.81 0 0 0 3.067 1.343c1.159.388 2.43.69 3.719.871 1.29.179 2.596.236 3.817.18a17.933 17.933 0 0 0 3.316-.454zm-8.236-54.476L498.069 46.7c-2.259 1.864-4.065 5.123-4.065 5.123l3.348 1.673-4.933 4.36c1.982 11.099 7.703 18.57 9.951 21.529l2.084.283c3.227-2.278 12.275-9.745 14.024-18.557l-4.964-4.751 5.417-3.172c-.371-.947-2.687-5.9-6.298-8.096z" fill="#D1DAFF"/><path d="M505.768 39.263c.273-1.67.2-3.396-.208-5.038l-6.199 8.063.825 1.97.481 1.147c1.165-.188 2.271-.815 3.085-1.684 1.13-1.209 1.749-2.825 2.016-4.458z" fill="#CA9A85"/><path d="M509.912 50.207l-.164-6.267-1.048-2.519-3.047-7.316-.093.12c.408 1.643.481 3.368.208 5.038-.268 1.634-.886 3.25-2.017 4.458-.814.87-1.92 1.497-3.085 1.684l.825 1.97-.484 2.864a54.46 54.46 0 0 0-.429 3.078c-.04 1.721.024 3.445.197 5.158 1.333.387 2.725.66 4.129.821a32.157 32.157 0 0 0 4.568-.318 57.73 57.73 0 0 0 .44-8.771z" fill="#E9B49D"/><path d="M500.578 53.317a55.534 55.534 0 0 0-.34 5.631 32.03 32.03 0 0 0 4.666.347 25.158 25.158 0 0 1-4.128-.821 41.492 41.492 0 0 1-.198-5.157z" fill="#CA9A85"/><path d="M517.941 52.99s-2.709-8.258-9.241-11.57l1.049 2.52.164 6.266a57.973 57.973 0 0 1-3.087 20.207l-3.551 10.388s10.966-10.04 14.335-19.685l-5.285-4.889 5.616-3.237zm-17.703 5.958c.028-2.913.283-5.826.77-8.71l.484-2.863-.826-1.97-.48-1.147c-3.015 3.097-5.257 7.08-5.257 7.08l3.403 2.048-4.799 4.624c1.484 10.503 9.742 22.79 9.742 22.79l-2.085-11.087a55.39 55.39 0 0 1-.952-10.765z" fill="#fff"/><path d="M509.473 58.978a32.16 32.16 0 0 1-9.234-.03c-.034 3.604.282 7.21.951 10.766l2.086 11.087 3.55-10.388a57.75 57.75 0 0 0 2.647-11.435z" fill="#669CDB"/><path d="M500.165 8.911c-1.991-.686-4.18-.929-6.209-.368a7.459 7.459 0 0 0-2.884 1.538 7.201 7.201 0 0 0 12.866.667c-1.2-.732-2.447-1.379-3.773-1.837z" fill="#203F64"/><path d="M500.163 8.911c1.325.458 2.573 1.105 3.773 1.837a7.2 7.2 0 1 0-12.866-.668 7.469 7.469 0 0 1 2.883-1.538c2.03-.56 4.22-.317 6.21.37zm-13.995 30.124c-2.666-2.827-5.03-6.032-6.299-9.705-1.268-3.673-1.348-7.87.396-11.342 1.616-3.218 4.729-5.596 8.21-6.514 3.481-.918 7.278-.418 10.505 1.179 1.714-1.36 4.513-1.237 6.252.09 1.426 1.089 2.154 2.855 2.618 4.589 1.416 5.287.897 11.069-1.436 16.019-5.954 3.394-13.405 5.278-20.246 5.684z" fill="#26568F"/><path d="M505.598 31.566c-1.832-.816-7-3.708-8.907-10.998a16.447 16.447 0 0 1-5.476 7.59 16.448 16.448 0 0 1-7.055 3.12l.883 5.082c.997 5.732 6.453 9.572 12.185 8.575 5.732-.997 9.572-6.452 8.575-12.184l-.205-1.185z" fill="#E9B49D"/><path d="M508.222 35.836a3.347 3.347 0 1 0 0-6.695 3.347 3.347 0 0 0 0 6.695z" fill="#E9B49D"/><path d="M508.222 34.455a1.965 1.965 0 1 0 0-3.93 1.965 1.965 0 0 0 0 3.93z" fill="#D2A18C"/><path d="M487.07 29.709c-1.19.206-2.103 1.02-2.452 1.995a13.181 13.181 0 0 1 5.435-.95c-.658-.797-1.794-1.254-2.983-1.045zm10.341-1.522c-1.299.23-2.309 1.098-2.737 2.16a17.666 17.666 0 0 1 6.05-1.073c-.768-.85-2.015-1.318-3.313-1.087z" fill="#26568F"/><path d="M498.695 31.188l-.601.138a.895.895 0 0 0-.563-.203.903.903 0 1 0 .878.7l.384-.477c.059-.073-.007-.18-.098-.158zm-11.683 1.2l.614.037a.9.9 0 0 1 1.562.45.902.902 0 1 1-1.791.094l-.458-.408a.1.1 0 0 1 .073-.173z" fill="#224266"/><path d="M490.458 36.839c-.677-.739-1.549-1.04-1.949-.674l-1.782 1.634c.4-.366 1.272-.066 1.949.673.678.738.902 1.633.502 2l1.782-1.634c.399-.366.175-1.262-.502-2z" fill="#797979"/><path d="M488.676 38.472c-.677-.738-1.549-1.039-1.949-.672l-1.212 1.11c.4-.367 1.273-.066 1.95.673.677.738.901 1.633.501 2l1.211-1.11c.401-.367.176-1.262-.501-2z" fill="#9A9A9A"/><path d="M487.466 39.583c-.678-.739-1.55-1.04-1.95-.673l-2.269 2.08 2.45 2.673 2.27-2.08c.399-.366.175-1.262-.501-2zm12.032-2.744c-.677-.739-1.549-1.04-1.949-.674l-1.782 1.634c.399-.366 1.273-.066 1.949.673.677.738.902 1.633.502 2L500 38.838c.399-.366.175-1.262-.502-2z" fill="#797979"/><path d="M497.716 38.472c-.677-.739-1.55-1.04-1.95-.673l-1.211 1.11c.4-.366 1.273-.065 1.949.673.677.738.902 1.634.502 2l1.211-1.11c.4-.366.176-1.262-.501-2z" fill="#9A9A9A"/><path d="M496.505 39.583c-.677-.739-1.549-1.04-1.949-.673l-2.269 2.08 2.45 2.673 2.269-2.08c.4-.366.176-1.262-.501-2z" fill="#797979"/><path d="M481.287 41.375l-4.051 3.717h16.44V55.39l3.971-3.645c.437-.4.685-.965.685-1.558v-7.783c0-.876-.71-1.586-1.585-1.586h-14.031c-.529 0-1.039.199-1.429.557zm12.389 15.887v8.214c-1.764 3.105-7.709 4.03-7.709 4.03V57.262h7.709z" fill="#3F7CC2"/><path d="M474.625 45.09h20.963l-11.8 11.26a7.927 7.927 0 0 0-2.455 5.735v31.223h-20.184V60.944c0-2.22.932-4.34 2.567-5.84l10.909-10.013z" fill="#9FB5FE"/><path d="M495.59 45.092v10.43l-6.608 6.006a2.904 2.904 0 0 0-.952 2.151v29.63h-6.696V62.086a7.93 7.93 0 0 1 2.456-5.735l11.8-11.26z" fill="#84A0EF"/><path d="M485.849 93.309h-29.212v8.368h29.212v-8.368z" fill="#B6C9FF"/><path d="M498.232 93.309h-12.383v8.368h12.383v-8.368z" fill="#9FB5FE"/><path d="M457.029 65.873c-.463 0-.838.783-.838 1.75s.375 1.75.838 1.75h4.121v-3.5h-4.121zm1.706 14.466c-1.405 0-2.544 2.379-2.544 5.312 0 2.934 1.139 5.312 2.544 5.312h2.415V80.338h-2.415zm.355-17.737c-.231 0-.42.392-.42.874 0 .484.188.876.42.876h2.06v-1.75h-2.06z" fill="#3F7CC2"/><path d="M501.029 77.697H488.03v3.105h12.999v-3.105z" fill="url(#b)"/><path d="M517.941 58.948l.064 2.428a40.452 40.452 0 0 0 3.846 16.19l1.525 3.235-5.435-21.853z" fill="#D1DAFF"/><path d="M514.931 86.225c-.443-2.91-1.955-5.147-3.52-5.359a1.752 1.752 0 0 0-.504.003c-1.731.264-2.736 3.09-2.246 6.311.491 3.222 2.293 5.62 4.024 5.356 1.732-.264 2.737-3.09 2.246-6.311z" fill="#BEC4CF"/><path d="M513.576 83.494l-8.12.742.264 5.548 7.172.5a6.783 6.783 0 0 0 1.224-2.94 6.802 6.802 0 0 0-.54-3.85z" fill="#E9B49D"/><path d="M515.585 83.312l-2.008.184a6.786 6.786 0 0 1 .54 3.849 6.807 6.807 0 0 1-1.224 2.94l3.573.249-.881-7.222z" fill="#CA9"/><path d="M487.79 81.121l2.726-1.295a2.58 2.58 0 0 1 .948-.244l3.226-.193a2.38 2.38 0 0 1 1.28.285l7.02 3.814h2.471a1.52 1.52 0 0 1 1.281.7 5.403 5.403 0 0 1-.068 5.94 1.347 1.347 0 0 1-1.769.426l-1.387-.768-2.13.232a6.76 6.76 0 0 1-4.873-1.378l-6.005.56a.693.693 0 0 1-.164-1.373l3.188-.463-4.844.195a.709.709 0 0 1-.231-1.39l2.496-.743 2.874-.33-3.435-.067-2.563.457a.823.823 0 0 1-.448-1.576l2.681-1.061 3.47-.628-2.314-.23-2.803.796a.893.893 0 0 1-.627-1.666z" fill="#A4CBF9"/><path d="M496.414 79.916l1.988 7.953-.461-.656a9.442 9.442 0 0 1-1.527-7.296zm-2.882 7.446l-.345-.105a6.242 6.242 0 0 0-4.009.118l-.49.183 4.844-.196zm.296-2.267l-1.403-.324a6.093 6.093 0 0 0-3.925.405l-.67.31 2.563-.457 3.435.066zm-.295-2.873l-2.314-.231-2.803.797 1.869-1.102a1.904 1.904 0 0 1 1.709-.114l1.539.65zm-2.114 6.893l1.829-.497a6.051 6.051 0 0 1 3.082-.025l.183.047-5.094.475z" fill="#679CCD"/><path d="M534.204 82.163l-6.715-30.859a5.154 5.154 0 0 0-3.889-3.929 17.91 17.91 0 0 0-4.701 8.049l-.958 3.524 5.435 21.853-11.964.065c1.564.212 3.076 2.45 3.52 5.359.491 3.222-.514 6.048-2.246 6.311l15.503-1.9c4.108-.504 6.895-4.429 6.015-8.473z" fill="#fff"/><path d="M523.376 80.802h7.843l-1.842-1.059a4.749 4.749 0 0 0-6.001 1.059zm1.488-31.546a10.88 10.88 0 0 0-2.241 1.577 12.612 12.612 0 0 0-2.041 2.38 12.625 12.625 0 0 0-1.384 2.815c-.326.95-.505 1.877-.566 2.681.251-.767.565-1.633.97-2.52.404-.887.898-1.795 1.464-2.656a19.91 19.91 0 0 1 1.864-2.392 24.195 24.195 0 0 1 1.934-1.885z" fill="#D1DAFF"/><path d="M518.763 58.688c.664-.727 1.493-1.639 2.412-2.459.914-.825 1.909-1.55 2.704-2.132-.961.21-2.147.808-3.111 1.679-.971.864-1.693 1.979-2.005 2.911zm8.668 5.505c-1.074 1.638-2.171 3.99-2.881 6.465-.722 2.471-1.049 5.045-1.016 7.003.434-1.91.984-4.38 1.692-6.808.698-2.43 1.552-4.812 2.205-6.66zm-4.089-1.609c-.512 1.673-.88 3.959-.91 6.258-.039 2.3.263 4.595.726 6.283-.049-1.751-.135-4.012-.097-6.274.029-2.261.182-4.518.281-6.267zm-7.937 28.169a7.025 7.025 0 0 0 .899-2.233c.19-.866.236-1.824.116-2.763a8.177 8.177 0 0 0-.818-2.642 7 7 0 0 0-1.439-1.93c.389.593.781 1.297 1.092 2.087.312.79.544 1.662.66 2.55.114.89.113 1.793.012 2.635a11.36 11.36 0 0 1-.522 2.296z" fill="#D1DAFF"/><path d="M472.829 59.398h-8.97a.66.66 0 0 1 0-1.32h8.97a.66.66 0 0 1 0 1.32zm6.039 0h-3.315a.66.66 0 1 1 0-1.32h3.315a.66.66 0 1 1 0 1.32z" fill="#E0DEDF"/><path d="M438.502 101.677h9.311l-3.715-3.385h-1.881l-3.715 3.385z" fill="#CBCBCB"/><path d="M455.593 78.436c0-1.22-.994-2.214-2.215-2.214a2.218 2.218 0 0 0-2.215 2.214c0 1.04.72 1.911 1.687 2.15v18.712a.528.528 0 1 0 1.056 0V80.585a2.217 2.217 0 0 0 1.687-2.149zm-2.215 1.16a1.16 1.16 0 0 1-1.158-1.16c0-.637.52-1.157 1.158-1.157.638 0 1.158.52 1.158 1.158a1.16 1.16 0 0 1-1.158 1.158z" fill="#4A6585"/><path d="M425.476 74.46l.647 1.694c.151.394.229.813.229 1.236V92.9c0 1.844 1.443 3.427 3.288 3.46a3.35 3.35 0 0 0 3.413-3.35V77.39c0-.423.078-.842.229-1.237l.647-1.694h-8.453z" fill="#fff"/><path d="M430.529 84.805c-.611-.05-1.205-.226-1.815-.292a3.166 3.166 0 0 0-1.043.047v8.45c0 1.118.911 2.03 2.03 2.03 1.119 0 2.03-.912 2.03-2.03v-8.28c-.395.078-.8.106-1.202.074z" fill="#4A90E2"/><path d="M435.188 74.46l.648 1.694c.151.395.228.813.228 1.236V92.9c0 1.845 1.444 3.428 3.289 3.461a3.35 3.35 0 0 0 3.413-3.35v-15.62c0-.423.077-.843.228-1.237l.648-1.694h-8.454z" fill="#fff"/><path d="M440.242 84.806c-.611-.05-1.205-.226-1.815-.292a3.16 3.16 0 0 0-1.042.047v8.45c0 1.118.91 2.03 2.029 2.03 1.12 0 2.03-.912 2.03-2.03v-8.279c-.395.078-.8.106-1.202.074z" fill="#7EB9FE"/><path d="M444.897 74.46l.648 1.694c.151.394.228.813.228 1.236V92.9c0 1.844 1.444 3.427 3.288 3.46a3.351 3.351 0 0 0 3.414-3.35V77.39c0-.423.077-.842.228-1.237l.648-1.694h-8.454z" fill="#fff"/><path d="M449.951 84.805c-.611-.05-1.205-.226-1.814-.292a3.165 3.165 0 0 0-1.043.047v8.45c0 1.118.911 2.03 2.03 2.03a2.032 2.032 0 0 0 2.029-2.03v-8.28c-.395.078-.8.106-1.202.074z" fill="#4A709C"/><path d="M456.795 77.908h-30.329a2.217 2.217 0 0 0-2.148-1.686c-1.039 0-1.911.72-2.149 1.686h-1.845a.528.528 0 0 0 0 1.057h1.845a2.22 2.22 0 0 0 1.62 1.62v18.713a.529.529 0 0 0 1.057 0V80.585a2.22 2.22 0 0 0 1.62-1.62h30.329a.529.529 0 1 0 0-1.057zm-32.477 1.687a1.16 1.16 0 0 1 0-2.316c.638 0 1.158.52 1.158 1.158a1.16 1.16 0 0 1-1.158 1.158z" fill="#4A6585"/><path d="M430.398 98.87h-12.162a1.85 1.85 0 0 0-1.849 1.849v.958h15.861v-.958a1.85 1.85 0 0 0-1.85-1.85z" fill="#417ABC"/><path d="M459.081 98.87h-30.245a1.85 1.85 0 0 0-1.85 1.849v.958h33.945v-.958a1.85 1.85 0 0 0-1.85-1.85z" fill="#7AB0F0"/><path stroke="#2F6EB9" stroke-dasharray="1 3" d="M344.484 115.665h58.082m-211.297 96.136h58.081"/><path fill="#fff" d="M34.047 85.122H192.27v162.229H34.047z" filter="url(#c)"/><mask id="d" maskUnits="userSpaceOnUse" x="34" y="85" width="159" height="163"><path fill="#fff" d="M34.047 85.122H192.27v162.229H34.047z"/></mask><g mask="url(#d)"><path d="M172.59 187.306l-1.358 32.931s3.71 4.4 1.75 33.484c-.16 2.336-9.096 4.277-9.27-2.12 0 0-2.81-28.143-3.305-32.291-.845-7.116-2.267-27.697-2.267-27.697l14.45-4.307z" fill="#446383"/><path d="M171.231 220.237s3.71 4.4 1.75 33.484c-.093 1.405-3.36 2.651-5.989 2.046-.924-7.82-1.145-18.657-2.687-30.412-1.638-12.448-1.196-29.665-.979-35.59l9.263-2.459-1.358 32.931z" fill="#476B8E"/><path d="M171.231 220.237s3.709 4.4 1.749 33.484c-.069 1.005-1.757 1.912-3.669 2.137-.571-6.941-2.257-24.404-3.057-35.245-.788-10.682 2.428-27.332 3.664-33.194l2.414-.843-1.101 33.661z" fill="#587B9E"/><path d="M162.047 190.853l-4.574 34.943s3.642 4.405 1.717 33.491c-.155 2.327-8.923 4.277-9.094-2.126 0 0-2.757-28.138-3.238-32.289-.833-7.118.041-30.915.041-30.915l15.148-3.104z" fill="#446383"/><path d="M157.837 225.336s3.643 4.405 1.718 33.491c-.091 1.401-3.297 2.648-5.873 2.041-.906-7.819-1.126-18.654-2.642-30.411-1.605-12.447-1.173-29.664-.954-35.585l12.326-4.478-4.575 34.942z" fill="#4F7194"/><path d="M157.474 225.796s3.642 4.405 1.717 33.491c-.063.998-1.718 1.914-3.599 2.134-.557-6.942-2.217-24.4-3-35.242-.778-10.682 2.383-27.333 3.594-33.196l5.862-2.13-4.574 34.943z" fill="#587B9E"/><path fill-rule="evenodd" clip-rule="evenodd" d="M167.794 143.963c-6.347 3.746-4.563 29.676-3.073 37.401.061 1.787 5.014 3.695 5.362 3.274l4.807-16.457c.667-4.527.275-8.011-.174-11.578-.992-7.877-1.515-11.684-6.922-12.64z" fill="#BEEFFC"/><path fill-rule="evenodd" clip-rule="evenodd" d="M168.09 151.255c-6.347 3.736-4.057 23.642-2.564 31.376.041 1.192 2.284 2.442 4.012 2.565 1.411-7.494 3.226-12.695 3.964-16.366.137-3.041.089-5.421-.091-9.014-.343-6.92-2.667-7.737-5.321-8.561z" fill="#B1D9E1"/><path d="M150.336 171.124s-.562-6.255-1.353-11.035c-1.055-3.34-.047-7.362-.047-7.362 2.654-2.378 8.048-5.276 8.048-5.276l5.001-.974 4.577-2.611c8.528-3.197 7.159 11.377 6.138 15.748-.869 3.71-1.91 9.433-2.379 12.081-.058 3.139.245 6.546 1.323 9.717 2.55 7.528 1.093 19.631.257 20.468-3.732 3.732-10.937 6.86-19.652 6.281-1.927-.128-4.346-1.062-5.235-2.649.001 0-.739-30.327 3.322-34.388z" fill="#D7FAFF"/><path d="M150.337 171.124s-.563-6.254-1.353-11.035c-1.055-3.34-.245-7.17-.047-7.362.71-.694 1.687-1.369 2.682-2.033 2.556-1.731 5.366-3.243 5.366-3.243l5.001-.974 4.577-2.61c1.22-.455 2.232-.541 3.076-.352 1.022 1.381 1.413 5.442-5.466 7.914-4.197 1.508-8.194 1.744-7.94 2.926 1.133 5.247 1.729 12.358-.596 21.468-2.265 8.857-4.913 28.338-8.621 29.689-.558-22.859 1.505-32.571 3.321-34.388z" fill="#C5EDF5"/><path d="M156.216 143.148s1.341 3.578-.701 5.189c-.944.744 6.378 1.109 9.994-1.625 0 0-2.701-2.824-.154-6.23l-9.139 2.666z" fill="#E8A476"/><path d="M156.235 146.588s3.02 3.047 7.755-1.242l-.316-1.523-.055-.851-1.837-8.273s-1.669 5.755-2.841 7.316c-.501.674-2.632 2.026-2.632 2.026s.396 1.217-.074 2.547z" fill="#DEA78E"/><path d="M155.515 148.337s2.237-1.996 8.659-4.673l-8.1.109s.738 2.208-.559 4.564z" fill="#C8957F"/><path d="M154.634 128.779s-2.206 2.621-2.076 4.353c.04.6.177 2.185.11 2.82-.07.635-.452.934-.511 1.473-.062.538.386 6.069 2.325 6.306 1.938.237 4.401 2.716 10.686-2.344 0 0 4.847-5.255 1.77-11.339.001.001-4.037-6.254-12.304-1.269z" fill="#E9B49D"/><path d="M152.819 132.098s1.025 1.742.957 2.922c-.066 1.179-.785 3.053-.205 3.712.572.66 1.571 1.096 1.995 2.297.229.629.703 1.555.612 3.174 0 0 3.652 1.349 4.635-.487l-.397-6.851-1.875-4.759-5.689-.092-.033.084z" fill="#DEA78E"/><path d="M167.926 133.327c.698 2.859-1.694 8.449-3.43 9.972-.72.63-2.715 1.515-3.944.767-2.361-1.433-.096-5.376-3.23-6.599-1.322-.515-2.284.817-2.331 1.657 0 0-.826-1.857-.401-3.368.239-.851.909-2.245-.337-3.626-.688-.758 11.442-7.874 13.673 1.197z" fill="#26568F"/><path d="M151.464 126.287s-1.538 5.893 5.8 6.79c0 0 11.404-.015 10.478 3.158 0 0 3.287-10.937-8.015-10.854-1.855.015-5.43 1.819-8.263.906z" fill="url(#e)"/><path d="M156.183 146.436s-1.676 1.733-2.875 3.162c0 0 12.2 2.119 13.419-4.244l-2.435-1.338s-.628 2.83-8.109 2.42z" fill="#587B9E"/><path d="M172.701 159.614c-.869 3.71-1.91 9.433-2.379 12.081-.058 3.139-.06 6.665 1.323 9.717 3.14 6.936 1.544 19.177.706 20.014-3.51 3.516-10.559 6.943-18.596 6.796.475-2.895 1.628-6.985 3.097-12.576 1.948-7.39 2.698-24.172 2.698-31.313 0-7.145-1.684-9.182.663-9.182 7.274 0 11.112-6.173 12.558-8.172 1.225 4.578.493 10.211-.07 12.635z" fill="#D7F7FF"/><path d="M128.071 126.107l1.001 25.245 14.273-7.277v-26.908l-15.274 8.94z" fill="#111920"/><path d="M137.045 120.854l-2.959 8.505s-2.414-.05-2.414 2.413c0 0-1.278 1.671-.465 2.489 0 0 1.85 1.98 5.452.494 0 0 1.385-1.979.385-4.514l4.354-11.94-4.353 2.553z" fill="#81A0C5"/><path d="M137.763 146.921s-5.89-10.179-4.402-11.666c0 0 2.448-2.379 4.172-.652 1.725 1.722 4.882 9.947 4.882 9.947l-1.332.679-4.015-8.573 3.073 9.053-2.378 1.212z" fill="#81A0C5"/><path fill-rule="evenodd" clip-rule="evenodd" d="M154.748 152.763c-2.729-1.975-15.163 3.156-22.471 6.14-.1.012-5.897 4.879-.756 7.726 4.124-.377 10.467-3.022 13.964-4.377 3.326-1.289 9.628-3.705 10.008-7.403.062-.62-.179-1.676-.745-2.086z" fill="#D0F4FC"/><path d="M156.133 155.247s-12.343-.962-24.418 5.516l4.19-3.391s15.323-7.204 18.321-5.132l1.287 1.339.62 1.668z" fill="#C5EDF5"/><path fill-rule="evenodd" clip-rule="evenodd" d="M130.827 146.067s2.092-2.65.928-4.56c0 0-.514-.396-.76-2.878-.035-.358-.567-2.477-1.39-.899-.381.732-.724 1.559-.565 2.812 0 0-.673-6.043-1.62-5.917 0 0-.509.888-1.316 3.267 0 0-.87 3.365-.059 4.153 0 0 1.953 2.609 2.134 4.001l2.648.021z" fill="#DEA78E"/><path fill-rule="evenodd" clip-rule="evenodd" d="M136.556 160.265l-3.304-14.702c-1.26-2.825-6.103-.678-6.386 1.308l2.402 15.996c.734 1.904 1.802 2.979 2.858 3.132 1.256.193 2.513-.817 3.397-1.999.81-1.076 1.087-2.142 1.033-3.735z" fill="#D0F4FC"/><path d="M129.268 162.867s.734 1.905 0 0l-2.402-15.996c.136-.925 1.252-1.874 2.537-2.35-.113 6.861-.825 15.885-.135 18.346z" fill="#C5EDF5"/><path fill-rule="evenodd" clip-rule="evenodd" d="M130.439 137.017s-1.474 1.181-.997 4.1l.342 2.952-1.9 1.016s-1.097-1.963-1.839-3.041c0 0-.919-.62.227-4.66l1.148-2.759s.685-.552 1.273 3.516l.347 2.4c0 .001-.433-3.992 1.399-3.524z" fill="#E9B49D"/></g><path fill="#6194CF" d="M1 96.137h114.161v26.037H1z"/><path d="M1 122.173l21.888-16.022 7.296 8.512 5.15-5.007 6.438 8.011 14.592-14.521 10.3 11.517 7.725-2.504 8.584 2.504 21.888-2.504 10.3-4.506" stroke="#ADD2FD"/><circle cx="56.578" cy="102.146" r="3.004" fill="#fff"/><path d="M70.888 139.293H44.061v-3.401h26.827v3.401zm9.726-5.102H77.17v3.401h3.444v-3.401zM44.06 162.835v3.401h14.603v-3.401H44.061zm18.047 0v3.401h26.45v-3.401h-26.45zm17.02-8.981v3.401h33.945v-3.401H79.128zm-35.066 0v3.401h31.623v-3.401H44.06zm0-8.982v3.401H99.2v-3.401H44.06zm.001 38.984h26.826v-3.401H44.061v3.401zm33.108-5.102h3.444v3.401H77.17v-3.401zm-33.11 14.082v-3.401h55.141v3.401h-55.14z" fill="#B2D1EF"/><g clip-path="url(#f)" fill="#4A709C"><path d="M70.098 214.161h-5.58l3.72 7.439h-5.58l-3.719-7.439v-11.159h11.159v11.159zM55.22 203.002v11.159h-5.58l3.72 7.439h-5.58l-3.719-7.439v-11.159H55.22z"/></g><path d="M195.132 107.152c-8.771 0-15.881 5.488-15.881 12.257 0 3.5 1.903 6.654 4.951 8.887l-1.617 4.893 5.811-2.68a19.798 19.798 0 0 0 6.736 1.157c8.771 0 15.882-5.487 15.882-12.257 0-6.769-7.111-12.257-15.882-12.257z" fill="#4A90E2"/><path d="M195.131 116.809a2.524 2.524 0 0 1 2.523 2.525 2.524 2.524 0 0 1-5.045 0 2.523 2.523 0 0 1 2.522-2.525zm-7.959 0a2.525 2.525 0 1 0 0 5.05 2.524 2.524 0 0 0 2.522-2.525 2.523 2.523 0 0 0-2.522-2.525zm13.396 2.525a2.524 2.524 0 0 0 5.045 0 2.523 2.523 0 1 0-5.045 0z" fill="#FFFDFF"/><defs><filter id="a" x="393" y="2.011" width="178.223" height="182.229" filterUnits="userSpaceOnUse" color-interpolation-filters="sRGB"><feFlood flood-opacity="0" result="BackgroundImageFix"/><feColorMatrix in="SourceAlpha" values="0 0 0 0 0 0 0 0 0 0 0 0 0 0 0 0 0 0 127 0"/><feOffset dy="4"/><feGaussianBlur stdDeviation="5"/><feColorMatrix values="0 0 0 0 0.2375 0 0 0 0 0.2375 0 0 0 0 0.2375 0 0 0 0.25 0"/><feBlend in2="BackgroundImageFix" result="effect1_dropShadow"/><feBlend in="SourceGraphic" in2="effect1_dropShadow" result="shape"/></filter><filter id="c" x="24.047" y="79.122" width="178.223" height="182.229" filterUnits="userSpaceOnUse" color-interpolation-filters="sRGB"><feFlood flood-opacity="0" result="BackgroundImageFix"/><feColorMatrix in="SourceAlpha" values="0 0 0 0 0 0 0 0 0 0 0 0 0 0 0 0 0 0 127 0"/><feOffset dy="4"/><feGaussianBlur stdDeviation="5"/><feColorMatrix values="0 0 0 0 0.2375 0 0 0 0 0.2375 0 0 0 0 0.2375 0 0 0 0.25 0"/><feBlend in2="BackgroundImageFix" result="effect1_dropShadow"/><feBlend in="SourceGraphic" in2="effect1_dropShadow" result="shape"/></filter><linearGradient id="b" x1="488.148" y1="77.669" x2="502.076" y2="77.669" gradientUnits="userSpaceOnUse"><stop stop-color="#2A5F9B"/><stop offset="1" stop-color="#336FB4"/></linearGradient><linearGradient id="e" x1="159.758" y1="125.381" x2="159.758" y2="136.235" gradientUnits="userSpaceOnUse"><stop stop-color="#26568F"/><stop offset="1" stop-color="#173C68"/></linearGradient><clipPath id="f"><path fill="#fff" transform="matrix(-1 0 0 1 70.098 199.283)" d="M0 0h26.037v26.037H0z"/></clipPath></defs></svg>