<svg width="422" height="247" viewBox="0 0 422 247" fill="none" xmlns="http://www.w3.org/2000/svg"><rect x="110.582" y="15.021" width="135.191" height="231.326" rx="10" fill="#72737A"/><path fill="#B9D8F5" d="M121.597 28.04h112.158v194.274H121.597z"/><path fill="#93B5D6" d="M133.614 190.269h89.126v5.007h-89.126zm0 13.018h65.092v5.007h-65.092zm71.1 0h18.025v5.007h-18.025z"/><circle cx="177.676" cy="234.33" r="6.008" fill="#B8B8B8"/><rect x="59.51" y="28.04" width="237.344" height="150.904" rx="10" fill="#4A90E2" filter="url(#a)"/><path d="M288.062 36.83H68.299v133.323h219.763V36.83z" fill="#71A8E8"/><mask id="b" maskUnits="userSpaceOnUse" x="67" y="15" width="221" height="155"><path d="M288 15H68v155h220V15z" fill="#71A8E8"/></mask><g mask="url(#b)"><circle cx="179.275" cy="109.524" r="51.953" fill="#639DE1"/><path d="M122.185 69.662l-3.858-4.738-5.4 3.39s2.47 2.634 5.463 6.326l3.795-4.978z" fill="#B55B52"/><path d="M170.391 70.04c-.226.48-.375.767-.563 1.135l-.537 1.023a80.71 80.71 0 0 1-3.466 5.84c-1.65 2.53-3.423 5.009-5.468 7.383-2.038 2.37-4.322 4.666-7.067 6.72a29.353 29.353 0 0 1-4.563 2.776l-1.283.576-1.353.501c-.455.16-.942.283-1.413.418l-.356.097c-.103.03-.347.079-.515.113-.375.08-.739.132-1.099.168a13.01 13.01 0 0 1-3.898-.197 17.718 17.718 0 0 1-3.071-.916c-1.831-.732-3.336-1.605-4.737-2.51-2.768-1.823-5.073-3.812-7.263-5.845a101.269 101.269 0 0 1-6.153-6.285 141.152 141.152 0 0 1-2.871-3.253 109.432 109.432 0 0 1-2.807-3.415l9.42-7.306a96.9 96.9 0 0 0 2.452 2.972 106.31 106.31 0 0 0 2.609 2.945c1.782 1.915 3.619 3.76 5.498 5.457 1.877 1.685 3.835 3.232 5.71 4.392.928.568 1.846 1.04 2.589 1.305.733.283 1.283.269 1.115.23-.018 0-.039.003-.079.003 0-.004-.073.021-.011 0l.14-.05c.187-.07.371-.112.563-.193l.577-.242.59-.302a16.74 16.74 0 0 0 2.423-1.63c1.626-1.315 3.215-2.998 4.668-4.892 1.465-1.882 2.823-3.96 4.067-6.124a66.583 66.583 0 0 0 2.571-4.998l.375-.834c.11-.253.256-.589.311-.739l12.895 5.677z" fill="#407BFF"/><path opacity=".8" d="M170.391 70.04c-.226.48-.375.767-.563 1.135l-.537 1.023a80.71 80.71 0 0 1-3.466 5.84c-1.65 2.53-3.423 5.009-5.468 7.383-2.038 2.37-4.322 4.666-7.067 6.72a29.353 29.353 0 0 1-4.563 2.776l-1.283.576-1.353.501c-.455.16-.942.283-1.413.418l-.356.097c-.103.03-.347.079-.515.113-.375.08-.739.132-1.099.168a13.01 13.01 0 0 1-3.898-.197 17.718 17.718 0 0 1-3.071-.916c-1.831-.732-3.336-1.605-4.737-2.51-2.768-1.823-5.073-3.812-7.263-5.845a101.269 101.269 0 0 1-6.153-6.285 141.152 141.152 0 0 1-2.871-3.253 109.432 109.432 0 0 1-2.807-3.415l9.42-7.306a96.9 96.9 0 0 0 2.452 2.972 106.31 106.31 0 0 0 2.609 2.945c1.782 1.915 3.619 3.76 5.498 5.457 1.877 1.685 3.835 3.232 5.71 4.392.928.568 1.846 1.04 2.589 1.305.733.283 1.283.269 1.115.23-.018 0-.039.003-.079.003 0-.004-.073.021-.011 0l.14-.05c.187-.07.371-.112.563-.193l.577-.242.59-.302a16.74 16.74 0 0 0 2.423-1.63c1.626-1.315 3.215-2.998 4.668-4.892 1.465-1.882 2.823-3.96 4.067-6.124a66.583 66.583 0 0 0 2.571-4.998l.375-.834c.11-.253.256-.589.311-.739l12.895 5.677z" fill="#fff"/><path d="M168.502 206.115h27.48l-10.418-52.093h-13.461l-3.601 52.093z" fill="#407BFF"/><path opacity=".6" d="M168.502 206.115h27.48l-10.418-52.093h-13.461l-3.601 52.093z" fill="#fff"/><path d="M115.713 63.306l-4.528-.064-.875 5.836s4.446.954 8.589-.869l-.084-1.894a3.15 3.15 0 0 0-3.102-3.01zm-11.612.203l.874 3.692 5.334 1.877.874-5.836-7.082.267z" fill="#B55B52"/><path d="M158.816 65.692c-1.942 7.42-5.417 26.157-1.612 55.946h37.459c.363-5.222-2.016-28.829 2.192-53.412.726-4.236-2.215-8.22-6.487-8.695a73.69 73.69 0 0 0-4.522-.371c-4.781-.231-11.474.124-15.691.508-2.481.226-4.787.725-6.579 1.209a6.754 6.754 0 0 0-4.76 4.815z" fill="#fff"/><path d="M184.129 44.268c-1.129 5.124-1.784 11.474 1.717 14.892 0 0-2.187 5.197-11.707 5.197-8.7 0-4.217-5.197-4.217-5.197 5.746-1.364 5.622-8.43 4.724-12.41l9.483-2.482z" fill="#B55B52"/><path d="M173.688 63.644l-2.06 2.28a.609.609 0 0 0-.129.596l.66 2.009a.58.58 0 0 0 .527.4l2.22.106a.617.617 0 0 0 .537-.27l1.327-1.95a.598.598 0 0 0-.038-.731l-2.147-2.445a.601.601 0 0 0-.897.005z" fill="#4A90E2"/><path d="M173.171 68.908s-3.405 25.07-3.484 29.433c-.107 5.997 1.926 12.16 1.926 12.16s2.341-4.432 2.747-12.346c.4-7.8-.087-24.804.087-29.248h-1.276v.001z" fill="#4A90E2"/><path opacity=".2" d="M174.641 46.754c.536 2.332.797 5.725-.244 8.411.686.297 3.494-.782 4.66-1.525 2.592-1.651 3.595-3.265 4.555-6.713.147-.908.321-1.797.515-2.658l-9.486 2.485z" fill="#000"/><path d="M165.758 41.77c.665 1.743 2.074 2.995 3.483 3.572 2.12.866 3.483-1.004 3.148-3.174-.302-1.953-1.77-4.758-4.02-4.7-2.217.056-3.372 2.31-2.611 4.302z" fill="#B55B52"/><path opacity=".2" d="M165.758 41.77c.665 1.743 2.074 2.995 3.483 3.572 2.12.866 3.483-1.004 3.148-3.174-.302-1.953-1.77-4.758-4.02-4.7-2.217.056-3.372 2.31-2.611 4.302z" fill="#000"/><path d="M170.215 39.07c1.905.255 3.777-1.973 4.181-4.977.403-3.004-.815-5.647-2.72-5.903-1.905-.256-3.777 1.972-4.181 4.976-.403 3.005.814 5.648 2.72 5.903z" fill="#263238"/><path d="M187.486 37.626c-1.71 6.804-2.369 10.865-6.46 13.814-6.154 4.435-13.938-.128-14.267-7.263-.296-6.422 2.549-16.47 9.706-18.082 7.053-1.589 12.731 4.729 11.021 11.531z" fill="#B55B52"/><path d="M176.178 23.717c-4.075.88-8.589 4.182-4.701 6.603 3.889 2.422 12.652 2.806 12.652 2.806s-2.893 6.806 1.069 10.327c1.32-.66-1.5 5.288-1.5 5.288s2.013-.518 3.407-2.866c2.36-.602 9.391-11.886 4.696-15.115-.88-6.603-10.149-8.225-15.623-7.043z" fill="#263238"/><path d="M189.125 45.721a6.72 6.72 0 0 1-4.57 2.21c-2.305.119-2.903-2.084-1.796-4.01.995-1.735 3.395-3.886 5.485-3.094 2.06.78 2.323 3.273.881 4.894z" fill="#B55B52"/><path d="M157.206 121.639s-2.249 52.362-2.01 73.72c.247 22.214 9.478 87.02 9.478 87.02h11.864s-1.067-63.508-.004-85.325c1.158-23.785 5.296-75.415 5.296-75.415h-24.624z" fill="#407BFF"/><path opacity=".2" d="M173.25 135.497c-.41 25.986.769 41.769 3.669 54.455.715-12.394 1.887-28.782 2.91-42.397l-6.579-12.058z" fill="#000"/><path d="M170.492 121.639s6.636 53.521 10.507 73.572c4.24 21.958 20.449 87.168 20.449 87.168h12.827s-10.121-63.438-12.314-85.178c-2.381-23.595-7.298-75.562-7.298-75.562h-24.171z" fill="#407BFF"/><path d="M176.831 37.808c-.105.56-.483.964-.844.902-.361-.061-.569-.564-.463-1.123.105-.56.483-.964.844-.904.361.062.568.565.463 1.125zm-6.869-1.618c-.105.56-.483.964-.844.903-.361-.06-.569-.565-.464-1.124.106-.56.483-.964.845-.903.361.06.569.564.463 1.124z" fill="#263238"/><path d="M172.821 37.595s-2.21 2.773-4.031 3.889c.669 1.177 2.415 1.243 2.415 1.243l1.616-5.132z" fill="#994F48"/><path d="M172.844 44.472a.163.163 0 0 1-.131-.192.171.171 0 0 1 .193-.137c2.426.41 3.88-1.114 3.895-1.13a.164.164 0 1 1 .238.226c-.064.068-1.595 1.673-4.195 1.233zm7.315-8.491a.319.319 0 0 1-.217-.194c-.533-1.37-1.722-1.61-1.735-1.61-.168-.025-.294-.208-.255-.389a.34.34 0 0 1 .392-.266c.064.012 1.554.31 2.215 2.01a.338.338 0 0 1-.4.45zm-11.956-2.474a.331.331 0 0 1-.168-.535c1.182-1.432 2.696-1.29 2.761-1.284.177.012.309.182.286.366a.342.342 0 0 1-.368.298c-.05-.005-1.233-.102-2.177 1.04a.334.334 0 0 1-.334.115z" fill="#263238"/><path d="M186.022 41.733a.218.218 0 0 1-.091-.02l-6.137-2.807a.219.219 0 0 1-.109-.291.22.22 0 0 1 .292-.108l6.137 2.807a.22.22 0 0 1-.092.42z" fill="#CCDEF4"/><path d="M176.708 41.79a2.84 2.84 0 0 1-.509-.045c-.79-.14-1.489-.6-1.973-1.296-.575-.83-.793-1.918-.597-2.985.374-2.043 2.147-3.443 3.926-3.126.788.14 1.488.6 1.972 1.296.575.83.794 1.917.597 2.985-.338 1.847-1.813 3.171-3.416 3.171zm.336-7.058c-1.395 0-2.683 1.175-2.983 2.811-.175.953.018 1.92.526 2.654.416.6 1.016.996 1.687 1.116 1.56.27 3.087-.968 3.418-2.773.174-.954-.018-1.922-.527-2.655-.417-.599-1.015-.995-1.687-1.114a2.42 2.42 0 0 0-.434-.04zm2.864 3.847h.006-.006z" fill="#CCDEF4"/><path d="M173.846 37.724a.222.222 0 0 1-.183-.098c-.673-1.007-1.526-.655-1.564-.639a.222.222 0 0 1-.289-.113.219.219 0 0 1 .111-.289c.011-.006 1.224-.526 2.108.798a.22.22 0 0 1-.06.305.23.23 0 0 1-.123.036z" fill="#CCDEF4"/><path d="M168.811 39.995c-.17 0-.339-.014-.51-.045-.788-.14-1.489-.6-1.973-1.296-.575-.83-.793-1.918-.596-2.986.374-2.042 2.143-3.441 3.925-3.126.789.14 1.489.6 1.973 1.296.575.83.793 1.918.596 2.986-.337 1.847-1.812 3.171-3.415 3.171zm.336-7.058c-1.395 0-2.682 1.175-2.983 2.811-.174.954.018 1.92.526 2.655.417.599 1.017.995 1.688 1.114 1.559.278 3.087-.968 3.418-2.773.174-.953-.018-1.921-.526-2.654-.417-.6-1.016-.996-1.688-1.115a2.514 2.514 0 0 0-.435-.038zm2.864 3.847h.006-.006z" fill="#CCDEF4"/><path d="M186.249 58.69l8.088.974a5.397 5.397 0 0 1 4.755 5.535c-.413 12.606-2.082 29.936-.744 56.439.674 13.365 10.01 85.945 10.01 85.945l-18.396 3.228s-13.083-39.129-18.348-85.579c-2.258-19.921-.137-37.977-.137-37.977l14.772-28.565z" fill="#407BFF"/><path opacity=".8" d="M186.249 58.69l8.088.974a5.397 5.397 0 0 1 4.755 5.535c-.413 12.606-2.082 29.936-.744 56.439.674 13.365 10.01 85.945 10.01 85.945l-18.396 3.228s-13.083-39.129-18.348-85.579c-2.258-19.921-.137-37.977-.137-37.977l14.772-28.565z" fill="#fff"/><path opacity=".2" d="M192.898 74.78c0 1.894 1.453 11.516 5.036 18.155.097-4.525.265-8.663.45-12.467l-5.486-5.688zm-34.814-1.682c-1.038 1.981-4.032 10.398-5.555 19.582a39.754 39.754 0 0 0 1.999-1.497c2.466-2.025 4.561-4.226 6.454-6.498.123-.15.246-.308.37-.458l-3.268-11.129z" fill="#407BFF"/><path d="M169.202 59.523l-4.772.574a9.712 9.712 0 0 0-8.552 9.27c-.541 14.152-1.653 42.418-2.253 52.272-.815 13.357-.243 85.945-.243 85.945l11.466 2.012s2.909-39.967 6.765-84.363c1.65-18.99.709-39.612.709-39.612l-3.12-26.098z" fill="#407BFF"/><path opacity=".8" d="M169.202 59.523l-4.772.574a9.712 9.712 0 0 0-8.552 9.27c-.541 14.152-1.653 42.418-2.253 52.272-.815 13.357-.243 85.945-.243 85.945l11.466 2.012s2.909-39.967 6.765-84.363c1.65-18.99.709-39.612.709-39.612l-3.12-26.098z" fill="#fff"/><path d="M174.147 63.44c1.646 2.564 2.539 5.467 2.539 5.467s11.185-3.835 10.779-9.997c0 0-1.667-1.005-2.722-1.821.001-.001-.5 3.883-10.596 6.352zm-.002 0c-2.193 2.574-3.18 4.875-3.18 4.875s-4.591-3.062-2.82-9.153c0 0 1.541-.639 3.076-.97.001-.001-.805 3.93 2.924 5.249z" fill="#F5F5F5"/><path opacity=".2" d="M185.756 125.361l12.813 11.003-8.751-4.279-4.062-6.724z" fill="#407BFF"/><path d="M198.618 62.892c.55.754.958 1.353 1.417 2.026l1.303 1.968a122.695 122.695 0 0 1 2.476 3.994c1.608 2.692 3.129 5.453 4.521 8.337 1.379 2.892 2.66 5.887 3.673 9.135.51 1.62.942 3.315 1.253 5.11.315 1.78.483 3.733.436 5.67-.135 3.826-.95 7.301-2.048 10.511-1.102 3.213-2.501 6.178-4.019 9.013a87.22 87.22 0 0 1-4.979 8.114 104.397 104.397 0 0 1-2.745 3.835c-.47.63-.955 1.253-1.445 1.875a62.438 62.438 0 0 1-1.577 1.921l-9.004-7.813c.348-.408.822-.99 1.232-1.509l1.259-1.636a75.612 75.612 0 0 0 6.607-10.423c1.236-2.391 2.28-4.829 3.041-7.228.755-2.394 1.211-4.758 1.196-6.85-.02-1.97-.524-4.213-1.372-6.598-.833-2.368-1.957-4.79-3.245-7.17a89.124 89.124 0 0 0-4.271-7.053 108.644 108.644 0 0 0-2.396-3.41l-1.242-1.66a57.325 57.325 0 0 0-1.215-1.542l11.144-8.617z" fill="#407BFF"/><path opacity=".8" d="M198.618 62.892c.55.754.958 1.353 1.417 2.026l1.303 1.968a122.695 122.695 0 0 1 2.476 3.994c1.608 2.692 3.129 5.453 4.521 8.337 1.379 2.892 2.66 5.887 3.673 9.135.51 1.62.942 3.315 1.253 5.11.315 1.78.483 3.733.436 5.67-.135 3.826-.95 7.301-2.048 10.511-1.102 3.213-2.501 6.178-4.019 9.013a87.22 87.22 0 0 1-4.979 8.114 104.397 104.397 0 0 1-2.745 3.835c-.47.63-.955 1.253-1.445 1.875a62.438 62.438 0 0 1-1.577 1.921l-9.004-7.813c.348-.408.822-.99 1.232-1.509l1.259-1.636a75.612 75.612 0 0 0 6.607-10.423c1.236-2.391 2.28-4.829 3.041-7.228.755-2.394 1.211-4.758 1.196-6.85-.02-1.97-.524-4.213-1.372-6.598-.833-2.368-1.957-4.79-3.245-7.17a89.124 89.124 0 0 0-4.271-7.053 108.644 108.644 0 0 0-2.396-3.41l-1.242-1.66a57.325 57.325 0 0 0-1.215-1.542l11.144-8.617z" fill="#fff"/><path d="M187.133 77.655c-.529 1.303-2.054 2.087-3.405 1.751-1.351-.336-2.018-1.665-1.489-2.969.53-1.303 2.054-2.087 3.405-1.75 1.351.335 2.018 1.665 1.489 2.968z" fill="#898989"/><path opacity=".2" d="M187.133 77.655c-.529 1.303-2.054 2.087-3.405 1.751-1.351-.336-2.018-1.665-1.489-2.969.53-1.303 2.054-2.087 3.405-1.75 1.351.335 2.018 1.665 1.489 2.968z" fill="#fff"/><path d="M184.339 76.335a.33.33 0 0 1-.268-.524c6.333-8.808 4.559-16.643 4.54-16.722a.332.332 0 0 1 .245-.397.324.324 0 0 1 .398.243c.019.081 1.872 8.195-4.647 17.263a.328.328 0 0 1-.268.137zm-22.085-4.452a.33.33 0 0 1-.329-.304c-.692-8.648 3.888-11.838 4.084-11.97a.33.33 0 0 1 .457.088.332.332 0 0 1-.087.46c-.046.03-4.456 3.13-3.796 11.37a.33.33 0 0 1-.302.355l-.027.001z" fill="#898989"/><path d="M186.21 77.425c-.528 1.303-2.053 2.087-3.405 1.751-1.351-.336-2.018-1.666-1.489-2.97.529-1.303 2.054-2.087 3.405-1.75 1.352.336 2.019 1.665 1.489 2.969z" fill="#898989"/><path opacity=".4" d="M186.21 77.425c-.528 1.303-2.053 2.087-3.405 1.751-1.351-.336-2.018-1.666-1.489-2.97.529-1.303 2.054-2.087 3.405-1.75 1.352.336 2.019 1.665 1.489 2.969z" fill="#fff"/><path opacity=".4" d="M184.781 76.965c-.279.685-1.081 1.097-1.792.92-.71-.176-1.06-.875-.782-1.56.279-.685 1.08-1.097 1.79-.921.711.176 1.061.875.784 1.56z" fill="#fff"/><path d="M164.849 92.011a.33.33 0 1 1 0-.66c1.284 0 2.388-1.045 2.461-2.328l.635-11.105c.091-1.61-.453-3.124-1.533-4.267-1.077-1.14-2.552-1.768-4.157-1.768-3.347 0-6.227 2.724-6.418 6.072l-.635 11.105c-.035.615.17 1.19.578 1.623.407.43.969.668 1.582.668a.33.33 0 1 1 0 .661 2.8 2.8 0 0 1-2.062-.875 2.807 2.807 0 0 1-.757-2.113l.636-11.105c.21-3.692 3.385-6.695 7.076-6.695 1.788 0 3.435.702 4.638 1.974 1.206 1.278 1.813 2.967 1.711 4.758l-.635 11.105c-.093 1.626-1.492 2.95-3.12 2.95z" fill="#898989"/><path d="M157.911 91.682c-.031.534-.302.966-.604.966-.303 0-.524-.432-.494-.966.031-.533.302-.966.604-.966s.524.433.494.966zm7.485 0c-.03.534-.301.966-.603.966-.303 0-.524-.432-.494-.966.031-.533.301-.966.604-.966s.524.433.493.966z" fill="#898989"/></g><g clip-path="url(#c)" fill="#fff"><path d="M110.457 50.416a5.965 5.965 0 0 1-5.958-5.958 5.965 5.965 0 0 1 5.958-5.959 5.965 5.965 0 0 1 5.959 5.959 5.965 5.965 0 0 1-5.959 5.958zm0-10.833a4.881 4.881 0 0 0-4.875 4.875 4.881 4.881 0 0 0 4.875 4.875 4.88 4.88 0 0 0 4.875-4.875 4.88 4.88 0 0 0-4.875-4.875zM108.832 58a2.168 2.168 0 0 1-2.166-2.167 2.168 2.168 0 0 1 4.333 0 2.169 2.169 0 0 1-2.167 2.166zm0-3.25c-.597 0-1.083.486-1.083 1.083s.486 1.083 1.083 1.083 1.083-.486 1.083-1.083-.486-1.083-1.083-1.083zm-7.583-13.001a2.169 2.169 0 0 1-2.166-2.166 2.17 2.17 0 0 1 2.166-2.167 2.17 2.17 0 0 1 2.167 2.167 2.169 2.169 0 0 1-2.167 2.166zm0-3.25c-.596 0-1.083.487-1.083 1.084 0 .596.487 1.083 1.083 1.083.597 0 1.084-.487 1.084-1.083 0-.597-.487-1.084-1.084-1.084zm-.541 15.167a2.712 2.712 0 0 1-2.709-2.708 2.712 2.712 0 0 1 2.709-2.708 2.712 2.712 0 0 1 2.708 2.708 2.712 2.712 0 0 1-2.708 2.708zm0-4.333c-.896 0-1.625.73-1.625 1.625 0 .896.729 1.625 1.625 1.625.895 0 1.624-.73 1.624-1.625 0-.896-.729-1.625-1.624-1.625zM120.749 38.5a3.254 3.254 0 0 1-3.249-3.25 3.253 3.253 0 0 1 3.249-3.25 3.254 3.254 0 0 1 3.25 3.25 3.254 3.254 0 0 1-3.25 3.25zm0-5.417a2.168 2.168 0 0 0-2.166 2.167c0 1.194.971 2.166 2.166 2.166a2.169 2.169 0 0 0 2.167-2.166 2.169 2.169 0 0 0-2.167-2.167zM120.207 58a3.795 3.795 0 0 1-3.791-3.792c0-2.09 1.7-3.791 3.791-3.791s3.791 1.7 3.791 3.79c0 2.091-1.7 3.792-3.791 3.792zm0-6.5a2.712 2.712 0 0 0-2.708 2.708 2.712 2.712 0 0 0 2.708 2.708 2.712 2.712 0 0 0 2.708-2.708 2.712 2.712 0 0 0-2.708-2.708zm-10.833-15.167a1.627 1.627 0 0 1-1.625-1.625c0-.895.729-1.624 1.625-1.624.895 0 1.625.728 1.625 1.624 0 .896-.73 1.625-1.625 1.625zm0-2.166a.542.542 0 1 0 0 1.084.542.542 0 0 0 0-1.084z"/><path d="M117.911 52.453a.546.546 0 0 1-.384-.158l-3.618-3.618a.542.542 0 0 1 .766-.766l3.618 3.618a.54.54 0 0 1-.382.924zm-3.423-11.061a.541.541 0 0 1-.361-.946l4.246-3.79a.54.54 0 1 1 .722.807l-4.247 3.792a.536.536 0 0 1-.36.137zm-5.428 13.379a.542.542 0 0 1-.537-.617l.628-4.42a.542.542 0 0 1 1.073.152l-.629 4.42a.54.54 0 0 1-.535.465zm.802-15.145a.542.542 0 0 1-.538-.48l-.369-3.305a.544.544 0 0 1 .478-.599.54.54 0 0 1 .599.478l.368 3.304a.542.542 0 0 1-.538.602zm-7.345 10.671a.54.54 0 0 1-.301-.992l3.434-2.286a.542.542 0 0 1 .6.901l-3.434 2.286a.53.53 0 0 1-.299.091zm3.152-7.833a.542.542 0 0 1-.253-.063l-2.989-1.581a.54.54 0 1 1 .505-.958l2.99 1.582a.542.542 0 0 1-.253 1.02z"/></g><path d="M41.785 143.776c18.417 0 33.347-14.251 33.347-31.831s-14.93-31.832-33.347-31.832S8.438 94.365 8.438 111.945s14.93 31.831 33.347 31.831z" fill="#90BCEF" filter="url(#d)"/><path d="M56.941 111.945l-12.126 6.821-12.126 6.821V98.303l12.126 6.822 12.126 6.82z" fill="#fff"/><path d="M247.845 154.754h-96.838a2.408 2.408 0 0 1-2.407-2.41 2.408 2.408 0 0 1 2.407-2.409h96.838a2.407 2.407 0 0 1 2.407 2.409 2.407 2.407 0 0 1-2.407 2.41z" fill="#254F82"/><path d="M151.008 154.754h-43.026a2.408 2.408 0 0 1-2.408-2.41 2.408 2.408 0 0 1 2.408-2.41h43.026a2.408 2.408 0 0 1 2.407 2.41 2.408 2.408 0 0 1-2.407 2.41z" fill="#2F6EB9"/><path d="M151.007 157.478a5.132 5.132 0 0 0 5.129-5.135 5.132 5.132 0 0 0-5.129-5.135 5.133 5.133 0 0 0-5.13 5.135 5.133 5.133 0 0 0 5.13 5.135z" fill="#FFFDFF"/><path opacity=".2" d="M394.957 17.67H269.183c-2.421 0-4.384 1.964-4.384 2.669v78.567c0 4.143 1.963 6.108 4.384 6.108h125.774V17.669z" fill="#2F516D"/><path d="M402.615 98.36H276.833a4.387 4.387 0 0 1-4.384-4.389V15.404a4.387 4.387 0 0 1 4.384-4.388h125.782a4.386 4.386 0 0 1 4.383 4.388v78.567a4.386 4.386 0 0 1-4.383 4.39z" fill="#4A90E2" filter="url(#e)"/><path d="M397.523 90.145h-98.237c-1.35 0-2.442-.898-2.442-2.006 0-1.109 1.092-2.007 2.442-2.007h98.237c1.349 0 2.442.898 2.442 2.007 0 1.108-1.093 2.006-2.442 2.006z" fill="#254F82"/><path d="M298.824 90.145h-18.312c-.567 0-1.025-.898-1.025-2.006 0-1.109.458-2.007 1.025-2.007h18.312c.565 0 1.024.898 1.024 2.007 0 1.108-.459 2.006-1.024 2.006z" fill="#2F6EB9"/><path d="M297.292 92.414a4.274 4.274 0 0 0 4.271-4.277 4.274 4.274 0 0 0-4.271-4.276 4.274 4.274 0 0 0-4.272 4.276 4.274 4.274 0 0 0 4.272 4.277zm46.899-21.891c11.298 0 20.456-8.742 20.456-19.526 0-10.784-9.158-19.526-20.456-19.526-11.297 0-20.456 8.742-20.456 19.526 0 10.784 9.159 19.526 20.456 19.526z" fill="#FFFDFF"/><path d="M353.489 50.998l-7.438 4.184-7.439 4.184V42.628l7.439 4.186 7.438 4.184z" fill="#2F6EB9"/><defs><filter id="a" x="44.51" y="17.04" width="267.344" height="180.904" filterUnits="userSpaceOnUse" color-interpolation-filters="sRGB"><feFlood flood-opacity="0" result="BackgroundImageFix"/><feColorMatrix in="SourceAlpha" values="0 0 0 0 0 0 0 0 0 0 0 0 0 0 0 0 0 0 127 0"/><feOffset dy="4"/><feGaussianBlur stdDeviation="7.5"/><feColorMatrix values="0 0 0 0 0.0690625 0 0 0 0 0.0896187 0 0 0 0 0.1625 0 0 0 0.25 0"/><feBlend in2="BackgroundImageFix" result="effect1_dropShadow"/><feBlend in="SourceGraphic" in2="effect1_dropShadow" result="shape"/></filter><filter id="d" x=".438" y="76.113" width="82.694" height="79.663" filterUnits="userSpaceOnUse" color-interpolation-filters="sRGB"><feFlood flood-opacity="0" result="BackgroundImageFix"/><feColorMatrix in="SourceAlpha" values="0 0 0 0 0 0 0 0 0 0 0 0 0 0 0 0 0 0 127 0"/><feOffset dy="4"/><feGaussianBlur stdDeviation="4"/><feColorMatrix values="0 0 0 0 0.123594 0 0 0 0 0.154153 0 0 0 0 0.2625 0 0 0 0.25 0"/><feBlend in2="BackgroundImageFix" result="effect1_dropShadow"/><feBlend in="SourceGraphic" in2="effect1_dropShadow" result="shape"/></filter><filter id="e" x="257.449" y=".016" width="164.549" height="117.345" filterUnits="userSpaceOnUse" color-interpolation-filters="sRGB"><feFlood flood-opacity="0" result="BackgroundImageFix"/><feColorMatrix in="SourceAlpha" values="0 0 0 0 0 0 0 0 0 0 0 0 0 0 0 0 0 0 127 0"/><feOffset dy="4"/><feGaussianBlur stdDeviation="7.5"/><feColorMatrix values="0 0 0 0 0.054902 0 0 0 0 0.0862745 0 0 0 0 0.192157 0 0 0 0.25 0"/><feBlend in2="BackgroundImageFix" result="effect1_dropShadow"/><feBlend in="SourceGraphic" in2="effect1_dropShadow" result="shape"/></filter><clipPath id="c"><path fill="#fff" transform="translate(98 32)" d="M0 0h26v26H0z"/></clipPath></defs></svg>