<svg width="127" height="90" viewBox="0 0 127 90" fill="none" xmlns="http://www.w3.org/2000/svg"><path d="M7 10a3 3 0 0 1 3-3h114a3 3 0 0 1 3 3v64.14a3 3 0 0 1-3 3H79.217a3 3 0 0 0-2.333 1.115l-7.318 9.055a3 3 0 0 1-4.53.157l-8.715-9.37a3 3 0 0 0-2.196-.956H10a3 3 0 0 1-3-3V10z" fill="#DAEBFF"/><path d="M1 3a2 2 0 0 1 2-2h114a2 2 0 0 1 2 2v64.14a2 2 0 0 1-2 2H72.217a4 4 0 0 0-3.111 1.487l-7.317 9.054a2 2 0 0 1-3.02.105l-8.715-9.37a4 4 0 0 0-2.93-1.275H3a2 2 0 0 1-2-2V3z" fill="#fff" stroke="#4A90E2" stroke-width="2"/><path d="M63.603 43.791h-7.148l-1.494-28.623h10.137l-1.495 28.623zm-8.76 10.02c0-1.641.44-2.881 1.32-3.721.878-.84 2.157-1.26 3.837-1.26 1.621 0 2.871.43 3.75 1.29.898.858 1.348 2.089 1.348 3.69 0 1.543-.45 2.764-1.348 3.663-.898.879-2.148 1.318-3.75 1.318-1.64 0-2.91-.43-3.809-1.289-.898-.879-1.347-2.11-1.347-3.692z" fill="#4A90E2"/></svg>