<svg width="50" height="49" viewBox="0 0 50 49" fill="none" xmlns="http://www.w3.org/2000/svg"><mask id="a" maskUnits="userSpaceOnUse" x="0" y="0" width="50" height="49"><path fill-rule="evenodd" clip-rule="evenodd" d="M.93.203h48.677v48.676H.93V.203z" fill="#fff"/></mask><path fill-rule="evenodd" clip-rule="evenodd" d="M36.103 35.355h-4.49V28.33c0-1.675-.029-3.83-2.333-3.83-2.337 0-2.692 1.826-2.692 3.71v7.145h-4.486V20.909h4.305v1.976h.061c.599-1.137 2.064-2.335 4.248-2.335 4.547 0 5.387 2.992 5.387 6.883v7.924zM17.04 18.935a2.602 2.602 0 0 1-2.605-2.604 2.604 2.604 0 1 1 2.605 2.604zm-2.248 16.42h4.494V20.909h-4.494v14.447zM25.269.203C11.827.203.931 11.099.931 24.54s10.896 24.34 24.338 24.34 24.338-10.897 24.338-24.34S38.71.203 25.269.203z" fill="#9B9B9B" mask="url(#a)"/></svg>