<svg width="50" height="49" viewBox="0 0 50 49" fill="none" xmlns="http://www.w3.org/2000/svg"><mask id="a" maskUnits="userSpaceOnUse" x="0" y="0" width="50" height="49"><path fill-rule="evenodd" clip-rule="evenodd" d="M.387.203h48.676v48.676H.387V.203z" fill="#fff"/></mask><path fill-rule="evenodd" clip-rule="evenodd" d="M38.028 31.925c0 .583-.164 1.124-.427 1.6l-8.4-9.398 8.309-7.27c.323.513.518 1.115.518 1.766v13.302zm-3.325 3.326H14.749c-.646 0-1.244-.19-1.754-.51l8.507-9.52 2.677 2.343a.828.828 0 0 0 1.094 0l2.676-2.343 8.507 9.52c-.51.32-1.108.51-1.753.51zm-23.28-3.325V18.622c0-.651.195-1.253.519-1.766l8.308 7.267-8.4 9.4a3.285 3.285 0 0 1-.426-1.599zm3.326-16.628h19.954c.575 0 1.11.158 1.584.419L24.726 25.834 13.165 15.717a3.265 3.265 0 0 1 1.584-.42zM24.726.203C11.285.203.387 11.099.387 24.54s10.898 24.34 24.339 24.34c13.44 0 24.337-10.896 24.337-24.338S38.167.203 24.726.203z" fill="#9B9B9B" mask="url(#a)"/></svg>