<svg width="119" height="22" viewBox="0 0 119 22" fill="none" xmlns="http://www.w3.org/2000/svg"><path d="M13.157 8.601l.244.649h5.938l-3.95 3.456-.521.456.243.648 2.309 6.157-5.973-2.986-.447-.224-.447.224-5.973 2.986 2.31-6.157.242-.648-.52-.456-3.95-3.456h5.936l.244-.649L11 2.848l2.157 5.753zm24.646.014l.25.635h6.194l-4.112 3.442-.552.462.263.67 2.422 6.18-6.337-3.031-.431-.206-.431.206-6.337 3.03 2.422-6.18.263-.67-.552-.461-4.112-3.442h6.195l.249-.635L35.5 2.74l2.303 5.875zm24.354-.014l.244.649h5.937l-3.95 3.456-.52.456.243.648 2.309 6.157-5.973-2.986-.447-.224-.447.224-5.972 2.986 2.308-6.157.243-.648-.52-.456-3.95-3.456h5.936l.244-.649L60 2.848l2.157 5.753zm24 0l.244.649h5.938l-3.95 3.456-.521.456.243.648 2.309 6.157-5.973-2.986-.447-.224-.447.224-5.972 2.986 2.308-6.157.243-.648-.52-.456-3.95-3.456h5.937l.244-.649L84 2.848l2.157 5.753zm24 0l.244.649h5.938l-3.95 3.456-.521.456.243.648 2.309 6.157-5.973-2.986-.447-.224-.447.224-5.973 2.986 2.309-6.157.243-.648-.521-.456-3.95-3.456h5.938l.244-.649L108 2.848l2.157 5.753z" stroke="#7D7D7D" stroke-width="2"/></svg>