<svg width="50" height="49" viewBox="0 0 50 49" fill="none" xmlns="http://www.w3.org/2000/svg"><path fill-rule="evenodd" clip-rule="evenodd" d="M37.001 20.45l.019.728c0 7.436-5.659 16.011-16.012 16.011a15.91 15.91 0 0 1-8.626-2.532c.441.05.888.077 1.342.077 2.637 0 5.064-.896 6.99-2.404a5.631 5.631 0 0 1-5.256-3.91c.345.07.696.105 1.059.105.515 0 1.012-.07 1.483-.197a5.634 5.634 0 0 1-4.514-5.518v-.07a5.645 5.645 0 0 0 2.55.706 5.626 5.626 0 0 1-2.503-4.684c0-1.033.276-2 .76-2.828a15.983 15.983 0 0 0 11.6 5.88 5.627 5.627 0 0 1 5.482-6.908 5.61 5.61 0 0 1 4.107 1.777 11.35 11.35 0 0 0 3.576-1.366 5.652 5.652 0 0 1-2.474 3.11 11.191 11.191 0 0 0 3.232-.886 11.251 11.251 0 0 1-2.815 2.909zM24.812.203C11.372.203.475 11.1.475 24.542c0 13.44 10.896 24.337 24.337 24.337 13.442 0 24.339-10.896 24.339-24.337C49.15 11.1 38.254.203 24.812.203z" fill="#9B9B9B"/></svg>