<svg width="50" height="39" viewBox="0 0 50 39" fill="none" xmlns="http://www.w3.org/2000/svg"><path d="M41.771 12.239C41.342 5.513 35.301.138 28.02.138c-4.42 0-8.702 1.99-11.354 5.236-.06-.029-.125-.048-.186-.076a7.351 7.351 0 0 0-1.275-.438c-.094-.023-.188-.047-.284-.067a7.865 7.865 0 0 0-.556-.093c-.083-.01-.165-.026-.248-.035a8.225 8.225 0 0 0-.82-.044c-4.04 0-7.328 3.017-7.328 6.726 0 .096.006.19.013.284C2.595 13.325.269 16.875.269 20.43c0 5.293 4.691 9.599 10.458 9.599h4.197c.45 0 .814-.334.814-.747s-.365-.747-.814-.747h-4.197c-4.869 0-8.83-3.636-8.83-8.105 0-3.104 2.202-6.327 5.237-7.662l.462-.202v-.471c0-.092.007-.186.013-.28l.007-.131-.01-.14c-.004-.066-.01-.13-.01-.196 0-2.884 2.557-5.231 5.7-5.231a6.196 6.196 0 0 1 .935.077c.218.033.433.076.645.132.028.007.056.012.083.02a5.898 5.898 0 0 1 .85.314c.196.089.39.188.575.298 1.569.933 2.61 2.55 2.61 4.39 0 .413.366.747.815.747.45 0 .814-.334.814-.747 0-2.058-1.014-3.9-2.605-5.135 2.333-2.802 6.178-4.58 10.001-4.58 6.305 0 11.544 4.585 12.089 10.377-.832-.053-2.079-.081-3.324.094-.445.062-.75.443-.682.85.06.37.407.636.803.636.04 0 .082-.003.124-.009 1.81-.251 3.699-.016 3.813-.001 3.791.66 6.649 3.866 6.649 7.461 0 4.132-3.663 7.494-8.165 7.494h-3.233c-.45 0-.815.334-.815.747s.365.747.815.747h3.233c5.4 0 9.793-4.032 9.793-8.988 0-4.102-3.115-7.78-7.348-8.801z" fill="#DF054E"/><path d="M26.085 19.786a.814.814 0 0 0-.266-.162.882.882 0 0 0-.622 0 .822.822 0 0 0-.265.162l-6.513 5.977a.704.704 0 0 0 0 1.057.85.85 0 0 0 .576.219.85.85 0 0 0 .575-.219l5.124-4.702V37.5c0 .413.365.747.814.747.45 0 .814-.334.814-.747V22.118l5.124 4.702a.85.85 0 0 0 .576.219.85.85 0 0 0 .575-.219.704.704 0 0 0 0-1.057l-6.512-5.977z" fill="#DF054E"/></svg>